<svg width="313" height="117" viewBox="0 0 313 117" fill="none" xmlns="http://www.w3.org/2000/svg">
<path fill-rule="evenodd" clip-rule="evenodd" d="M7.77041 0.253487C4.17888 1.16278 1.34013 3.86821 0.311129 7.36254C-0.132358 8.86892 -0.0971454 11.5117 0.387424 13.0768C1.41525 16.3961 4.26652 19.0713 7.71856 19.9556C13.8278 21.5202 20.1644 16.5124 20.144 10.1359C20.1354 7.46752 19.3447 5.3701 17.623 3.44869C15.1866 0.729792 11.1105 -0.592192 7.77041 0.253487ZM66.5125 23.6972C62.4702 24.1953 58.0711 25.4317 55.1784 26.8822C47.8087 30.5781 42.7519 36.9217 40.6294 45.1328C39.6195 49.0397 39.6137 49.172 39.6137 67.7675C39.6137 87.0484 39.5409 85.8921 40.9283 88.6336C41.6819 90.1226 43.7287 92.1627 45.2882 92.9791C47.4754 94.1239 48.9799 94.4228 53.1609 94.5432L56.9267 94.6515L56.9279 73.5997C56.9291 50.6032 56.9381 50.3931 58.0545 47.2461C59.1889 44.0487 61.1468 41.6399 63.6939 40.3081C65.6848 39.2673 66.9743 38.9858 69.7325 38.9897C72.6792 38.994 74.373 39.3417 76.4699 40.3727C79.9274 42.0727 82.0823 45.2911 83.0891 50.2586C83.3464 51.5277 83.4139 54.4624 83.5144 68.7432L83.6338 85.7192L84.1547 87.0615C85.2049 89.7679 86.9792 91.7065 89.6065 93.0181C91.9002 94.1631 93.5717 94.4736 97.5194 94.4878L100.845 94.4999L100.901 74.6945C100.959 54.0037 100.867 50.5896 100.153 46.8962C97.8309 34.8951 89.5505 26.5685 77.5194 24.1364C75.8253 23.794 74.6105 23.7013 71.3053 23.6619C69.0458 23.6349 66.889 23.6507 66.5125 23.6972ZM141.633 23.775C133.721 24.7239 127.169 27.6581 122.465 32.3593C117.131 37.6907 114.06 44.8359 112.733 55.0035C112.424 57.3724 112.392 59.9469 112.389 82.1094L112.387 106.598L112.928 108.189C114.228 112.015 117.374 114.912 121.386 115.977C122.159 116.182 123.811 116.326 126.227 116.397L129.893 116.506L129.944 101.227L129.994 85.9481L130.744 87.0748C131.832 88.7095 134.387 91.2862 136.073 92.4485C140.138 95.2517 144.243 96.2884 149.876 95.9347C163.388 95.0859 173.163 86.4533 177.022 71.9628C178.48 66.4854 179.132 59.1546 178.596 54.2474C177.128 40.8069 168.693 29.43 157.088 25.2373C153.772 24.0391 151.865 23.7321 147.307 23.663C144.993 23.6279 142.44 23.6783 141.633 23.775ZM210.058 23.9834C209.118 24.074 207.466 24.3276 206.385 24.5472C200.885 25.6652 197.041 27.5589 193.949 30.6741C192.147 32.4906 190.998 34.2978 190.216 36.5473C189.702 38.0263 189.67 38.3262 189.601 42.2547C189.546 45.4166 189.585 46.4012 189.766 46.4012C189.897 46.4012 190.587 45.8525 191.301 45.1816C195.984 40.7798 203.317 38.401 212.204 38.401C218.235 38.401 221.874 39.3842 224.115 41.6198C225.988 43.4883 226.836 45.8072 227.057 49.6695L227.182 51.8647H222.992C207.04 51.8647 197.064 54.6521 191.4 60.6917C189.059 63.1883 187.729 65.8137 186.977 69.4261C186.41 72.1511 186.556 76.6052 187.294 79.0849C189.883 87.785 197.695 93.6784 208.734 95.258C213.327 95.9152 220.393 95.8344 224.098 95.0824C227.909 94.3085 231.948 92.567 234.735 90.4949C239.351 87.064 242.398 82.2032 243.698 76.1955C244.009 74.7589 244.044 73.3113 244.044 61.9137C244.044 49.4853 244.035 49.18 243.589 46.7171C242.045 38.1916 238.637 32.4035 232.861 28.4944C227.412 24.8061 218.935 23.1294 210.058 23.9834ZM250.794 25.5126C250.794 26.1353 251.554 29.9143 252.268 32.8399C254.297 41.1487 258.337 53.2339 262.672 63.9626C266.588 73.6516 271.625 83.9521 275.035 89.2422C275.261 89.5936 275.192 89.8955 274.472 91.6813C272.575 96.388 270.526 99.5283 268.534 100.783C266.7 101.938 265.778 102.1 258.374 102.574L253.435 102.89L253.379 105.218C253.285 109.179 253.978 111.083 256.379 113.458C259.23 116.278 263.22 117.429 268.153 116.857C275.009 116.062 279.682 112.775 284.847 105.114C290.115 97.2994 297.03 82.2216 303.945 63.4748C309.864 47.4297 313.009 36.7892 313 32.8399C312.994 30.3237 312.003 27.7576 310.611 26.658C308.963 25.3562 308.371 25.2465 302.597 25.1718L297.376 25.1042L297.274 25.7525C297.218 26.109 296.985 27.63 296.757 29.1324C295.349 38.4127 291.994 51.1734 288.058 62.2234C286.587 66.3542 284.079 72.7025 283.867 72.8336C283.782 72.8853 283.073 71.591 282.289 69.9575C276.653 58.2057 272.95 47.4022 270.353 35.1349C269.477 30.9981 268.918 29.7434 267.2 28.052C266.595 27.4555 265.575 26.6891 264.935 26.3488C262.859 25.2449 262.044 25.1323 256.132 25.1323C250.97 25.1323 250.794 25.145 250.794 25.5126ZM1.46201 26.7318C1.39999 26.893 1.38415 38.2993 1.42679 52.0792C1.4935 73.6352 1.54652 77.3537 1.80651 78.7095C3.57694 87.9433 8.09789 92.8056 16.6274 94.6488C19.1792 95.2002 24.531 95.2404 26.3971 94.7224C28.0092 94.2745 28.969 93.7818 29.9497 92.8979C31.7567 91.2696 32.4295 89.0773 32.6083 84.2337L32.728 80.9919L29.1282 80.8863C22.6285 80.6959 20.4606 79.5409 19.1528 75.5726C18.9505 74.9589 18.8711 70.6638 18.7813 55.4746C18.6772 37.8878 18.6363 36.052 18.3257 34.9862C17.0518 30.6154 14.5802 28.1449 10.3955 27.0594C8.34125 26.5267 1.63553 26.2807 1.46201 26.7318ZM148.635 39.2954C156.891 40.9878 160.811 48.1532 160.849 61.6211C160.869 68.6727 159.245 73.4955 155.66 77.0361C152.842 79.819 149.05 81.0609 144.872 80.5694C138.081 79.7706 133.391 75.7353 131.092 68.7125C130.099 65.6816 129.815 63.537 129.814 59.0844C129.813 54.8808 130.053 52.8805 130.901 50.011C132.545 44.4497 136.331 40.4153 140.951 39.3013C142.579 38.9089 146.734 38.9056 148.635 39.2954ZM227.262 68.9871C227.146 73.9373 226.976 75.011 226.014 76.9045C224.936 79.0281 222.627 80.6276 219.769 81.2315C217.844 81.6383 214.126 81.602 211.955 81.1552C208.729 80.491 206.238 78.8566 205.131 76.678C203.623 73.7109 204.21 69.5567 206.417 67.5677C207.929 66.2054 210.662 65.1798 213.918 64.7528C216.327 64.4369 216.694 64.4207 222.209 64.3856L227.37 64.3528L227.262 68.9871Z" fill="#55366A"/>
</svg>
