<svg width="390" height="103" viewBox="0 0 390 103" fill="none" xmlns="http://www.w3.org/2000/svg">
<path fill-rule="evenodd" clip-rule="evenodd" d="M81.1223 0.258392C75.6988 0.804151 68.5666 2.35321 62.9971 4.19526C58.0145 5.84351 48.5287 10.3234 47.5794 11.4771C47.052 12.1184 47.7004 14.3745 51.3105 24.4574C51.7011 25.5484 51.7564 25.5201 54.5205 22.7954C61.0251 16.3848 70.1194 11.9561 82.2257 9.30455C86.1407 8.44706 88.1979 8.30537 96.7552 8.30537C105.6 8.30537 107.261 8.42741 111.482 9.38821C114.099 9.98379 116.75 10.4418 117.373 10.4057C117.996 10.3696 120.641 9.66063 123.25 8.82965L127.995 7.31944L123.514 5.58891C117.889 3.4173 112.092 1.85179 106.266 0.931221C100.937 0.0892711 86.6124 -0.293766 81.1223 0.258392ZM246.061 2.79887C243.195 3.1618 240.596 3.55626 240.284 3.67556C239.837 3.84697 239.717 11.8578 239.717 41.6168V79.3404H247.194H254.671V65.4588V51.5776L260.675 51.3344C267.605 51.0537 270.662 50.3384 275.82 47.7924C285.878 42.8262 290.846 32.151 288.436 20.6805C287.485 16.1503 285.863 12.9398 282.992 9.90334C280.08 6.82396 276.713 4.86535 271.886 3.4429C267.438 2.13153 253.98 1.79603 246.061 2.79887ZM12.8009 40.6094C5.75338 61.5342 -0.00679092 78.8139 6.00905e-06 79.0086C0.00680294 79.2033 3.42158 79.3061 7.58855 79.2371L15.1653 79.1119L18.7206 68.0276L22.2758 56.9433H32.8514H43.427L44.7691 60.7142C45.5077 62.7885 47.2043 67.8278 48.5396 71.9128L50.9679 79.3404H58.8329C63.2137 79.3404 66.6308 79.1608 66.5465 78.9354C66.4636 78.7129 60.5938 61.435 53.5023 40.5403L40.609 2.55022L33.1115 2.55707L25.614 2.56393L12.8009 40.6094ZM122.697 11.6064L116.013 13.6976V18.1798V22.6619H111.922H107.832L107.957 28.9468L108.083 35.2318L112.048 35.3639L116.013 35.496V50.0207C116.013 58.3177 116.219 65.6718 116.494 67.1719C117.568 73.0294 120.399 76.9334 125.19 79.1626C127.758 80.3574 128.462 80.4772 132.779 80.453C136.007 80.4347 138.468 80.1531 140.432 79.5767L143.327 78.727L143.04 74.3486C142.882 71.9407 142.751 69.0725 142.75 67.9759C142.748 66.047 142.707 65.989 141.502 66.2203C134.745 67.5161 134.091 67.581 132.973 67.0672C130.714 66.0292 130.513 64.5898 130.513 49.416V35.4603H137.084H143.654V29.0611V22.6619H137.084H130.513V16.0342C130.513 11.0077 130.376 9.41974 129.947 9.46042C129.636 9.49059 126.373 10.456 122.697 11.6064ZM268.491 16.3606C272.568 18.4892 274.155 21.1645 274.155 25.9082C274.155 29.5941 273.442 31.8681 271.61 34.0278C269.199 36.8686 266.275 37.8975 259.995 38.1146L254.671 38.2993V26.5412V14.7836L260.448 14.9806C265.557 15.1552 266.488 15.3148 268.491 16.3606ZM170.162 21.9087C167.374 22.6377 164.556 24.0762 163.408 25.356C162.157 26.7519 161.779 26.5517 161.779 24.4903V22.6619H154.913H148.047L148.341 27.8041C148.502 30.6326 148.635 43.3848 148.636 56.1434L148.638 79.3404H156.095H163.552L163.685 61.6284L163.818 43.9164L165.042 41.5761C167.265 37.3261 170.385 35.5837 174.874 36.0847C176.27 36.2401 177.871 36.4961 178.432 36.6528L179.451 36.9381V29.6206C179.451 23.5103 179.338 22.2588 178.766 22.0376C177.184 21.4251 172.292 21.3519 170.162 21.9087ZM83.8012 22.4083C80.6483 23.2854 76.3064 25.7911 74.5596 27.7415C71.7575 30.8703 70.563 33.8381 70.3501 38.2028C70.1937 41.4019 70.3351 42.5556 71.1503 44.7377C72.9737 49.6167 78.2014 53.8342 86.0528 56.7609C92.3925 59.124 94.5802 62.8063 91.6267 66.1412C90.454 67.4649 90.0684 67.6011 86.9106 67.8054C82.7912 68.0724 78.6836 66.9726 74.7173 64.5414L72.1635 62.9759L70.5535 68.0728C67.9575 76.2912 67.8647 75.3825 71.4901 77.2246C83.658 83.4057 99.1414 80.7674 104.937 71.5257C107.471 67.4846 108.044 61.8734 106.452 56.675C105.644 54.0358 105.071 53.1339 102.641 50.6835C99.8175 47.835 98.382 46.9994 89.7521 43.1814C86.002 41.5222 84.7473 40.2839 84.7473 38.2417C84.7473 36.9966 85.0641 36.2337 85.9168 35.4256C86.9609 34.436 87.4897 34.3176 90.8582 34.3176C94.4171 34.3176 94.8417 34.4282 98.3607 36.2735C100.412 37.3494 102.146 38.1722 102.213 38.1018C102.28 38.0319 103.162 35.4146 104.172 32.2859C105.51 28.1401 105.878 26.4384 105.526 26.0115C104.767 25.0891 100.64 23.2141 97.6796 22.4471C94.4257 21.6047 86.7665 21.5828 83.8012 22.4083ZM197.576 22.8123C188.604 25.4931 181.705 32.9614 179.136 42.7737C178.171 46.4591 178.07 55.6013 178.954 59.2287C181.456 69.4907 187.957 76.7561 196.973 79.3656C207.049 82.2813 217.981 79.7093 224.843 72.8087C228.386 69.2466 230.472 65.7527 231.953 60.9025C232.95 57.639 233.092 56.3418 233.086 50.5441C233.08 44.6047 232.954 43.5329 231.872 40.224C228.916 31.1829 222.11 24.6452 213.407 22.486C208.991 21.3899 201.843 21.5375 197.576 22.8123ZM304.549 22.2446C300.256 23.0943 291.827 26.7058 291.827 27.6958C291.827 28.1209 295.467 38.8226 295.689 39.0489C295.775 39.1376 297.032 38.4752 298.481 37.5771C302.217 35.2624 304.636 34.4949 309.076 34.2157C314.108 33.8994 316.662 34.8848 318.08 37.6891C319.751 40.9929 319.566 41.2292 315.043 41.5738C307.04 42.1831 300.205 44.5275 295.564 48.2555C287.644 54.6163 286.384 67.0485 292.898 74.5534C298.878 81.443 310.577 82.6264 319.128 77.2063L320.827 76.1294L320.834 77.3919C320.847 79.7737 321.04 79.8327 328.339 79.696C332.907 79.6101 335.072 79.4076 335.012 79.0712C334.357 75.4058 333.968 66.6326 333.968 55.5044C333.968 40.5193 333.573 37.0084 331.35 32.2607C329.138 27.5381 323.971 23.5021 318.511 22.2327C316.133 21.6797 307.366 21.687 304.549 22.2446ZM339.854 36.2602C342.787 43.7395 347.441 55.5135 350.194 62.4251L355.201 74.9917L353.76 77.7301C351.584 81.8676 347.182 86.3251 343.375 88.2463C341.623 89.1303 339.804 89.8534 339.331 89.8534C338.858 89.8534 338.375 90.1107 338.259 90.4247C338.061 90.9563 341.308 102.437 341.795 102.928C342.171 103.308 346.301 102.121 349.148 100.815C358.172 96.6753 364.084 89.2349 370.631 73.7768C371.654 71.3625 376.347 59.2342 381.061 46.8243C385.774 34.415 389.771 23.902 389.942 23.4618C390.231 22.7186 389.696 22.6624 382.388 22.6656L374.523 22.6688L368.892 39.5878C365.795 48.8931 363.121 56.3477 362.95 56.1534C362.779 55.9596 359.927 48.3446 356.613 39.2313L350.587 22.6619H342.554H334.521L339.854 36.2602ZM36.4193 34.2179L39.7938 44.1449H33.0104C27.5702 44.1449 26.2561 44.0238 26.3739 43.5324C26.6666 42.3088 32.8582 24.1031 32.9502 24.1959C33.0018 24.2485 34.5633 28.7585 36.4193 34.2179ZM210.999 35.3794C213.402 36.6259 214.983 38.4167 216.359 41.4509C220.376 50.3096 218.129 62.0252 211.574 66.4008C209.185 67.9956 204.846 68.3942 201.963 67.2834C193 63.8306 190.296 46.6397 197.399 38.2686C200.824 34.233 206.474 33.0323 210.999 35.3794ZM319.399 57.5905C319.256 61.5077 319.119 62.0709 317.878 63.8507C314.597 68.556 306.33 69.61 304.267 65.5863C303.251 63.6044 303.424 60.1026 304.628 58.2679C306.427 55.5268 311.735 53.5778 318.039 53.3428L319.556 53.2866L319.399 57.5905Z" fill="#55366A"/>
</svg>
