<svg width="257" height="91" viewBox="0 0 257 91" fill="none" xmlns="http://www.w3.org/2000/svg">
<path fill-rule="evenodd" clip-rule="evenodd" d="M108.834 1.60824C108.635 2.49284 108.412 3.441 108.337 3.71498C108.244 4.06271 107.734 4.27134 106.649 4.40654C94.4734 5.92514 85.3511 10.4372 76.6054 19.2674C63.6418 32.3563 58.7367 50.1308 63.7944 65.6916C66.2848 73.3541 71.0301 79.6234 77.8156 84.2161C84.6556 88.846 95.6797 91.6739 103.719 90.8613C126.796 88.5285 146.071 71.2408 149.801 49.5304C152.402 34.3947 147.482 20.6777 136.456 12.3245C134.391 10.7603 129.848 8.16288 129.177 8.16288C129.051 8.16288 129.953 8.81367 131.183 9.60925C142.145 16.6984 148.095 25.9905 149.391 38.0446C150.658 49.8226 146.668 61.6223 137.784 72.3676C135.81 74.7546 132.63 77.7082 132.032 77.7082C131.955 77.7082 133.111 76.4564 134.6 74.9267C139.609 69.7833 143.098 64.6927 145.486 59.0431C150.947 46.1241 149.444 30.7178 141.731 20.5509C138.869 16.7793 134.113 12.654 130.521 10.8284C127.922 9.50763 128.084 9.78011 131.08 11.772C134.468 14.0239 138.382 17.6765 140.651 20.7044C147.526 29.8778 149.623 42.4361 146.238 54.1767C145.424 57.0044 143.135 62.1187 141.543 64.6685C137.439 71.2435 130.35 78.3902 125.454 80.8878C123.322 81.9754 123.442 81.767 126.009 79.922C142.645 67.9647 149.988 50.7795 145.796 33.6156C143.549 24.4161 138.144 17.3965 129.544 12.5086C127.764 11.4972 127.956 11.7184 130.829 13.9888C140.578 21.6942 145.058 29.5553 145.687 40.0596C146.147 47.7516 144.053 56.3287 140.097 62.9571C134.445 72.4288 126.321 79.4642 117.152 82.8288C113.682 84.1019 113.647 83.7832 117.092 82.2817C123.017 79.6989 127.569 76.5547 132.387 71.7186C136.247 67.8436 138.779 64.286 141.018 59.5917C143.594 54.192 144.596 50.0322 144.813 43.8348C145.087 35.9939 143.532 30.2885 139.474 24.259C137.788 21.7521 133.634 17.654 130.811 15.7119C128.132 13.8695 127.759 13.823 130.137 15.6285C135.905 20.0069 140.254 25.5984 142.081 30.9836C143.721 35.8203 144.186 42.9469 143.234 48.6533C140.757 63.4874 129.166 77.0289 115.084 81.5407C111.964 82.5398 106.624 83.5329 105.509 83.321C104.96 83.2164 105.025 83.1762 105.794 83.1447C109.661 82.9865 117.292 80.5437 121.494 78.1192C128.774 73.918 136.05 65.9871 139.489 58.5023C142.067 52.8916 142.966 48.6218 142.924 42.1861C142.89 36.907 142.184 33.6282 140.165 29.376C137.798 24.3885 132.676 18.6397 128.768 16.583C126.623 15.4535 126.713 15.5698 130.353 18.6214C137.977 25.0135 141.317 31.0724 141.855 39.4883C142.402 48.0483 140.893 54.764 136.895 61.5569C130.791 71.9297 121.825 78.3051 109.68 80.9079C107.775 81.3159 105.804 81.4439 101.369 81.4475C98.1397 81.4502 95.2644 81.3195 94.9013 81.154C94.443 80.9448 96.1368 80.8558 100.566 80.8558C107.474 80.8558 109.587 80.5596 114.557 78.895C127.106 74.6917 136.761 64.4991 139.975 52.0646C143.368 38.9334 139.412 26.8553 129.252 19.324C126.075 16.9697 126.199 17.2991 129.853 20.9319C137.039 28.0753 139.708 33.5244 140.041 41.7365C140.213 45.977 139.722 49.6011 138.461 53.3976C133.966 66.9257 121.511 77.4843 107.641 79.5233C104.934 79.9214 97.1845 79.7418 95.406 79.24C94.5903 79.0095 94.7856 78.9903 96.3005 79.1513C99.547 79.4957 105.246 79.3191 108.01 78.7883C123.646 75.7843 136.82 62.6981 138.949 48.0558C139.458 44.5594 139.163 38.3369 138.354 35.4969C136.761 29.9039 132.938 24.584 128.202 21.3705C125.675 19.6558 125.536 19.6307 127.307 21.2086C132.869 26.1628 135.579 29.9857 137.193 35.1522C137.823 37.1708 137.892 37.9475 137.892 43.0854C137.892 48.0987 137.807 49.1041 137.191 51.4788C135.788 56.8782 133.031 61.6981 128.805 66.1391C123.545 71.6659 117.091 75.4003 109.783 77.1453C104.524 78.401 98.3192 78.3776 94.0772 77.0859C92.147 76.4981 87.9524 74.57 87.9524 74.2705C87.9524 74.1974 88.9056 74.5454 90.0705 75.0439C94.1837 76.8038 96.2742 77.2001 101.518 77.2139C105.728 77.225 106.668 77.1315 109.52 76.4174C122.455 73.1797 131.83 64.8504 135.838 53.034C138.598 44.899 137.706 36.4082 133.407 29.8973C132.18 28.0385 128.757 24.4533 126.703 22.8759C125.528 21.9733 125.605 22.0983 127.344 23.9251C132.336 29.1695 134.627 33.0463 135.829 38.2892C136.503 41.2266 136.274 48.1407 135.392 51.4528C133.98 56.7559 130.389 62.6975 126.207 66.646C119.477 73.0019 111.621 76.2265 102.86 76.2298C95.6866 76.2325 89.6533 74.064 85.2691 69.9081C83.5077 68.2381 83.9308 68.4125 86.4987 70.4146C88.7017 72.1323 92.449 73.9534 95.4397 74.7597C97.4808 75.3101 98.7345 75.4354 102.263 75.4405C108.151 75.4489 111.5 74.6779 116.827 72.087C125.341 67.9464 132.413 59.6186 134.607 51.1518C137.158 41.3042 134.097 32.5043 125.668 25.4515C124.276 24.2869 124.314 24.3535 126.236 26.4503C130.512 31.1164 132.584 34.6477 133.45 38.7493C134.102 41.8351 133.872 47.9158 132.986 51.0292C130.133 61.0554 121.345 70.0879 111.456 73.159C105.206 75.1 97.3249 74.4942 91.6792 71.6386C88.496 70.0286 84.5384 66.8684 83.7098 65.2752C83.5366 64.9415 84.1854 65.4176 85.1517 66.3331C88.2846 69.3004 92.0862 71.483 96.2137 72.6833C99.606 73.6698 106.38 73.6608 110.015 72.6647C118.79 70.2606 126.161 64.1529 130.155 55.9753C132.405 51.37 133.076 48.3649 132.899 43.685C132.789 40.806 132.612 39.6843 132.011 38.0668C130.904 35.0898 129.513 32.9354 127.048 30.3772C124.675 27.9141 124.633 28.0013 126.855 30.7813C128.693 33.0802 130.427 36.7007 131.06 39.559C131.721 42.5486 131.505 48.1649 130.613 51.1791C125.968 66.8687 108.504 76.1878 94.0644 70.6817C87.5628 68.2024 82.6112 62.2464 81.2195 55.2319C80.5853 52.0352 80.7848 47.1385 81.6899 43.685C83.57 36.5095 88.9739 29.9546 96.0023 26.3232C98.3821 25.0939 102.146 23.7126 104.228 23.3049L105.15 23.1244L104.897 24.9839C104.758 26.0067 104.693 26.8928 104.753 26.953C104.812 27.013 107.554 25.5813 110.845 23.7713C114.136 21.961 118.71 19.4883 121.01 18.2763L125.19 16.0725L117.193 8.03609L109.197 0L108.834 1.60824ZM157.324 8.65929C157.213 8.77081 157.122 26.5109 157.122 48.0816V87.3007H182.762H208.403V75.46V63.6193H195.435H182.467L182.391 36.1159L182.315 8.61253L169.92 8.53429C163.103 8.49143 157.435 8.54748 157.324 8.65929ZM0 48.3112V87.6004H11.3295H22.6589V75.6542V63.7083L28.8454 63.5333C44.0558 63.1034 51.8705 59.6975 55.7252 51.8179C59.7477 43.5947 59.7597 29.6371 55.7514 21.5024C52.7771 15.4666 48.3902 12.2358 39.9605 9.87364C37.8103 9.27111 36.9153 9.23994 18.8576 9.13352L0 9.02231V48.3112ZM212.577 19.7038V30.3454H224.95H237.323V19.7038V9.06218H224.95H212.577V19.7038ZM29.9268 24.6604C32.4294 25.4374 33.1748 26.081 34.348 28.477L35.33 30.483L35.3113 36.0347C35.2832 44.3984 34.5388 46.6724 31.3051 48.2705C29.8636 48.9827 29.242 49.0936 26.1621 49.1871L22.6589 49.2939V36.4792V23.6646L25.3467 23.8687C26.8249 23.9809 28.8857 24.337 29.9268 24.6604ZM212.875 61.6708V87.6004H224.95H237.024V61.6708V35.7412H224.95H212.875V61.6708ZM240.9 80.556C240.9 81.2442 241.01 81.3054 242.242 81.3054H243.584V84.1532V87.0009H244.478H245.372V84.1532V81.3054H246.714C247.946 81.3054 248.056 81.2442 248.056 80.556V79.8066H244.478H240.9V80.556ZM250.143 83.5536V87.3007H251.037C251.926 87.3007 251.932 87.2902 251.941 85.577L251.95 83.8534L252.562 84.6777C252.899 85.131 253.409 85.5021 253.697 85.5021C253.985 85.5021 254.41 85.131 254.641 84.6777C255.054 83.8684 255.063 83.8849 255.151 85.577C255.239 87.2656 255.259 87.3007 256.12 87.3007H257V83.5536V79.8066H256.111C255.343 79.8066 255.118 80.0116 254.466 81.3054C254.05 82.1297 253.648 82.8042 253.571 82.8042C253.495 82.8042 253.093 82.1297 252.677 81.3054C252.025 80.0116 251.8 79.8066 251.032 79.8066H250.143V83.5536Z" fill="#55366A"/>
</svg>
