<svg width="100" height="100" viewBox="0 0 100 100" fill="none" xmlns="http://www.w3.org/2000/svg">
<rect width="100" height="100" rx="15" fill="#251730"/>
<g clip-path="url(#clip0_304_390)">
<path d="M50.5 78.4825C66.5066 78.4825 79.4825 65.5066 79.4825 49.5C79.4825 33.4935 66.5066 20.5176 50.5 20.5176C34.4935 20.5176 21.5176 33.4935 21.5176 49.5C21.5176 65.5066 34.4935 78.4825 50.5 78.4825Z" fill="white"/>
<path d="M50.5 17C44.0721 17 37.7886 18.9061 32.444 22.4772C27.0994 26.0484 22.9338 31.1242 20.4739 37.0628C18.0141 43.0014 17.3705 49.5361 18.6245 55.8404C19.8785 62.1448 22.9738 67.9358 27.519 72.481C32.0643 77.0262 37.8552 80.1215 44.1596 81.3755C50.464 82.6295 56.9986 81.9859 62.9372 79.5261C68.8758 77.0662 73.9516 72.9006 77.5228 67.556C81.0939 62.2114 83 55.9279 83 49.5C83.0124 45.2444 82.1865 41.0281 80.5695 37.0917C78.9524 33.1553 76.5758 29.576 73.5755 26.5581C70.5751 23.5402 67.0097 21.1428 63.0828 19.5028C59.1559 17.8628 54.9444 17.0124 50.6889 17H50.5ZM51.0509 50.6017L47.6671 62.0121H65.7664C65.8863 62.0079 66.0058 62.0274 66.1182 62.0694C66.2305 62.1114 66.3335 62.1752 66.4212 62.257C66.5089 62.3389 66.5796 62.4372 66.6293 62.5464C66.679 62.6556 66.7066 62.7736 66.7107 62.8935V63.1925L65.1368 68.6223C65.0674 68.8791 64.9128 69.1046 64.6983 69.2619C64.4838 69.4192 64.2222 69.4989 63.9564 69.4879H36.2567L40.8995 53.6707L35.7058 55.2445L36.8862 51.6247L42.0799 50.0508L48.6114 27.8596C48.6833 27.6042 48.8386 27.3803 49.0525 27.2234C49.2664 27.0666 49.5266 26.9858 49.7918 26.9939H56.7954C56.9153 26.9897 57.0349 27.0092 57.1472 27.0512C57.2596 27.0933 57.3626 27.157 57.4503 27.2389C57.538 27.3207 57.6087 27.4191 57.6583 27.5283C57.708 27.6375 57.7357 27.7554 57.7397 27.8753V28.1743L52.2313 46.9031L57.425 45.3293L56.3233 49.1065L51.0509 50.6017Z" fill="#345D9D"/>
</g>
<defs>
<clipPath id="clip0_304_390">
<rect width="65" height="65" fill="white" transform="translate(18 17)"/>
</clipPath>
</defs>
</svg>
