<svg width="212" height="61" viewBox="0 0 212 61" fill="none" xmlns="http://www.w3.org/2000/svg">
<path fill-rule="evenodd" clip-rule="evenodd" d="M24.444 0.125218C24.3743 0.193929 24.3173 9.60061 24.3173 21.0288C24.3173 43.92 24.4009 42.3169 23.1434 43.5593C22.3886 44.3052 21.4452 44.681 20.3277 44.681C18.2347 44.681 16.7223 43.4093 16.2532 41.2549L16.141 40.7386H8.07048H0V41.6088C0 43.1123 0.676515 46.4888 1.15108 47.3537C1.2493 47.5329 1.32985 47.7595 1.32985 47.857C1.32985 47.9544 1.58081 48.57 1.88763 49.225C3.7631 53.229 7.40176 56.9103 11.3987 58.8478C15.9654 61.0612 21.8662 61.4593 26.6363 59.8756C33.1494 57.7133 38.2218 52.3187 39.9529 45.7136C40.6319 43.1223 40.6554 42.2979 40.6554 21.0517V0H32.6131C28.1896 0 24.5135 0.0563192 24.444 0.125218ZM97.5882 4.81598C97.5172 4.88619 97.4591 7.58508 97.4591 10.8134C97.4591 17.6496 97.7606 16.9542 94.8309 16.8765C93.8107 16.8494 92.8734 16.89 92.748 16.9666C92.4109 17.1725 92.4201 28.34 92.7571 28.3674C92.8878 28.3781 93.8495 28.4063 94.8943 28.4297C95.9392 28.4534 96.9438 28.4868 97.1266 28.5043C97.4385 28.5339 97.4598 29.1493 97.4705 38.4388C97.4765 43.8856 97.5527 48.7221 97.6395 49.1867C98.0413 51.337 98.2372 52.0328 98.756 53.15C99.4428 54.6292 100.761 56.3751 101.887 57.2982C102.805 58.0501 105.585 59.5122 106.097 59.5122C106.27 59.5122 106.829 59.6469 107.339 59.8118C108.095 60.0564 108.906 60.0964 111.744 60.029C113.936 59.977 115.468 59.8559 115.887 59.7016C116.253 59.567 116.937 59.315 117.407 59.1419L118.262 58.8273L118.312 53.4438L118.363 48.0603L117.932 48.0669C117.695 48.0704 116.946 48.1943 116.267 48.3419C115.588 48.4895 114.468 48.6134 113.778 48.6169C111.597 48.6284 110.566 48.0603 110.206 46.6476C109.891 45.4085 109.917 28.5459 110.235 28.5059C110.366 28.4894 112.011 28.459 113.892 28.4382C115.773 28.4171 117.547 28.3884 117.834 28.3742L118.357 28.3481V22.7361C118.357 17.7919 118.321 17.1106 118.056 17.0101C117.891 16.9474 116.106 16.8962 114.09 16.8962C111.265 16.8962 110.376 16.8387 110.214 16.6456C110.072 16.4772 109.987 14.4913 109.953 10.5911L109.903 4.78726L103.81 4.73769C100.459 4.71047 97.6593 4.74577 97.5882 4.81598ZM66.2076 15.7061C64.9467 15.8391 62.7076 16.3244 61.4775 16.7314C53.5392 19.3576 47.9846 26.5197 47.0083 35.3881C46.7161 38.0408 46.9726 41.823 47.6187 44.3949C49.1879 50.6417 53.2083 55.8361 58.5134 58.4719C59.0881 58.7573 59.7057 59.0653 59.886 59.1562C60.7419 59.5882 63.0271 60.2274 65.2577 60.659C66.7287 60.9435 70.9832 60.9305 72.5718 60.6367C78.4336 59.5523 82.6958 56.815 86.0771 51.9633C86.9348 50.7325 86.9323 50.7282 85.0785 50.2343C84.5213 50.0858 83.1252 49.6972 81.9758 49.3705C79.7736 48.7448 76.9186 47.9636 75.8015 47.6811C75.2319 47.5371 75.0275 47.5853 74.3766 48.0175C72.7077 49.1259 71.1405 49.5665 68.9054 49.5554C65.5835 49.5393 62.6692 48.0336 61.0156 45.4793C60.3608 44.4676 59.7684 42.8876 59.9406 42.6122C60.0141 42.4949 65.0892 42.4282 73.9669 42.4282H87.8782L88.2515 41.8181C88.592 41.2622 88.6239 40.8663 88.6125 37.3594C88.6028 34.3969 88.5221 33.165 88.2624 32.0089C87.2247 27.3927 85.4452 23.9601 82.6711 21.2242C80.3095 18.8952 76.7189 16.9591 73.6162 16.3418C72.9896 16.217 72.1349 16.0443 71.7169 15.9577C70.7663 15.761 67.2228 15.5991 66.2076 15.7061ZM143.054 15.6919C142.793 15.7369 142.066 15.8623 141.439 15.9708C133.343 17.37 127.226 22.5624 124.425 30.4132C123.537 32.9005 123.247 35.2776 123.35 39.2367C123.434 42.5324 123.526 43.12 124.383 45.9013C125.768 50.3944 129.039 54.757 132.893 57.2529C134.395 58.2258 136.976 59.5122 137.425 59.5122C137.554 59.5122 137.74 59.5902 137.839 59.6858C138.377 60.2032 143.61 61.061 145.837 60.9966C148.1 60.9312 152.6 60.081 152.856 59.67C152.911 59.5831 153.129 59.5122 153.342 59.5122C153.822 59.5122 156.44 58.1948 157.967 57.1848C159.627 56.0865 162.336 53.4338 163.432 51.8323C165.053 49.464 166.266 46.7296 166.981 43.8362C167.578 41.4227 167.578 34.8743 166.982 32.6046C165.804 28.1177 163.954 24.8183 160.971 21.884C157.838 18.8023 154.151 16.9131 149.418 15.9652C148.25 15.7313 143.906 15.5447 143.054 15.6919ZM193.398 15.9911C191.825 16.3155 190.272 16.7884 189.362 17.2197C188.866 17.4547 188.408 17.6471 188.343 17.6471C188.278 17.6471 187.805 17.9513 187.293 18.3228C186.156 19.1475 185.793 19.0813 185.93 18.0739C185.999 17.5698 185.944 17.2801 185.749 17.1204C185.538 16.9478 184.01 16.9031 179.602 16.9403L173.735 16.9901V38.298V59.606H179.91H186.084L186.187 46.3707C186.252 37.9633 186.363 32.8956 186.49 32.4782C186.885 31.1757 187.783 29.6331 188.556 28.9299C190.194 27.4372 193.143 27.0041 195.647 27.8883C196.995 28.3642 197.565 28.8165 198.224 29.9324C199.419 31.9576 199.368 31.2884 199.475 46.0891L199.573 59.606H205.747H211.921L211.983 45.7136C212.045 31.7881 211.962 29.3363 211.368 27.5033C211.234 27.0902 211.015 26.4144 210.882 26.0014C209.916 23.0091 207.543 19.7624 205.272 18.3269C204.182 17.6379 202.536 16.8367 201.567 16.5237C199.459 15.8426 195.401 15.5781 193.398 15.9911ZM70.8337 27.1535C72.6712 27.6253 74.4574 29.0731 75.296 30.7706C75.647 31.4816 75.7137 32.2894 75.4215 32.2928C75.317 32.2941 71.876 32.2965 67.7749 32.2982C61.2259 32.3012 60.3108 32.2665 60.2567 32.0136C60.1719 31.6175 61.8099 29.2267 62.616 28.57C64.7293 26.8486 67.6708 26.3417 70.8337 27.1535ZM148.551 27.9523C151.462 29.0483 153.446 31.3075 154.368 34.5743C154.524 35.1251 154.705 36.4458 154.77 37.5094C155.184 44.2755 151.213 49.1867 145.326 49.1867C141.802 49.1867 138.807 47.3424 137.247 44.2117C136.269 42.2502 135.975 40.9502 135.951 38.4858C135.928 36.1329 136.19 34.6419 136.902 33.0833C137.151 32.5383 137.355 32.0401 137.355 31.9762C137.355 31.7883 138.7 30.1772 139.335 29.6048C140.376 28.6659 141.71 28.0062 143.529 27.5293C144.393 27.3029 147.527 27.5669 148.551 27.9523Z" fill="#55366A"/>
</svg>
