<svg width="100" height="100" viewBox="0 0 100 100" fill="none" xmlns="http://www.w3.org/2000/svg">
<rect width="100" height="100" rx="15" fill="#251730"/>
<path d="M82.0272 57.3622C77.686 74.7728 60.0498 85.3687 42.635 81.027C25.2274 76.6863 14.6303 59.0511 18.9735 41.6415C23.3128 24.2287 40.9489 13.6318 58.3586 17.9725C75.7723 22.3133 86.3685 39.9505 82.0272 57.3622Z" fill="#F7931A"/>
<path d="M64.8309 44.8701C65.4779 40.5456 62.1849 38.2209 57.6822 36.67L59.1428 30.8119L55.5766 29.9233L54.1546 35.627C53.217 35.3934 52.2541 35.173 51.2973 34.9546L52.7295 29.2134L49.1653 28.3247L47.7036 34.1807C46.9276 34.004 46.1658 33.8293 45.4264 33.6455L45.4304 33.6272L40.5122 32.3994L39.5635 36.2079C39.5635 36.2079 42.2095 36.8142 42.1537 36.8518C43.598 37.2124 43.8591 38.168 43.8154 38.9257L42.1516 45.5993C42.2512 45.6247 42.3802 45.6612 42.5224 45.7181C42.4035 45.6887 42.2766 45.6562 42.1455 45.6247L39.8134 54.9734C39.6367 55.4122 39.1887 56.0703 38.1791 55.8204C38.2147 55.8722 35.587 55.1735 35.587 55.1735L33.8165 59.2552L38.4574 60.412C39.3208 60.6284 40.1669 60.8548 40.9998 61.0681L39.5239 66.9932L43.0861 67.8819L44.5477 62.0198C45.5208 62.2838 46.4655 62.5276 47.3898 62.7571L45.9332 68.5918L49.4994 69.4805L50.9753 63.5665C57.0565 64.7172 61.6293 64.2531 63.5542 58.7535C65.1052 54.3255 63.477 51.7712 60.2774 50.1056C62.6075 49.5683 64.3627 48.0358 64.8309 44.8701ZM56.6827 56.2947C55.5806 60.7228 48.1241 58.329 45.7067 57.7288L47.665 49.8791C50.0825 50.4824 57.8346 51.6767 56.6827 56.2947ZM57.7858 44.8061C56.7802 48.834 50.5741 46.7876 48.5609 46.2859L50.3364 39.1664C52.3496 39.6681 58.833 40.6045 57.7858 44.8061Z" fill="white"/>
</svg>
