<svg width="200" height="124" viewBox="0 0 200 124" fill="none" xmlns="http://www.w3.org/2000/svg">
<path fill-rule="evenodd" clip-rule="evenodd" d="M36.1787 0.517603C23.1058 3.03445 11.7243 11.1248 5.62396 22.2383C1.58506 29.5966 0 35.7186 0 43.9618C0 55.5039 3.91216 65.531 11.6165 73.7383C19.4671 82.1005 28.502 86.5789 39.9243 87.7691L45.5337 88.3535L44.4464 91.5466C41.5632 100.012 36.3822 107.662 25.8695 118.979C23.4045 121.632 21.4663 123.883 21.563 123.979C21.6596 124.075 24.4971 123.596 27.8688 122.914C50.9328 118.246 67.9407 106.908 78.6073 89.0904C85.8018 77.0716 89.3813 62.2724 88.6883 47.4121C88.36 40.3819 87.5544 35.4919 85.8907 30.4368C81.1549 16.0478 69.7142 5.21977 55.1033 1.30008C50.1553 -0.0279981 40.982 -0.407103 36.1787 0.517603ZM146.657 0.759345C137.883 2.70584 131.168 6.22845 124.918 12.1631C116.543 20.1146 111.922 30.316 111.369 42.0726C110.791 54.3374 115.043 65.5645 123.59 74.3427C131.726 82.6985 140.933 86.9881 152.862 87.9798C157.468 88.3628 157.264 87.7327 154.839 94.0867C152.215 100.963 146.041 109.645 136.644 119.677C132.81 123.77 132.526 124.198 133.814 123.94C134.601 123.783 136.119 123.516 137.188 123.345C141.153 122.714 148.982 120.58 153.456 118.911C177.579 109.911 193.097 91.7572 198.864 65.7892C200.126 60.1046 200.399 45.803 199.365 39.581C197.213 26.6482 192.47 17.7438 183.789 10.3399C179.377 6.57699 171.875 2.6738 166.325 1.25301C160.639 -0.202738 151.974 -0.420201 146.657 0.759345Z" fill="url(#paint0_linear_112_1680)" fill-opacity="0.15"/>
<defs>
<linearGradient id="paint0_linear_112_1680" x1="65.5" y1="111" x2="124.5" y2="-17" gradientUnits="userSpaceOnUse">
<stop stop-color="#9711C4"/>
<stop offset="1" stop-color="#850DAD" stop-opacity="0.3"/>
</linearGradient>
</defs>
</svg>
