<svg width="150" height="28" viewBox="0 0 150 28" fill="none" xmlns="http://www.w3.org/2000/svg">
<path fill-rule="evenodd" clip-rule="evenodd" d="M0 13.9503V27.9006H11.0497H22.0994V13.9503V0H11.0497H0V13.9503ZM43.0939 13.9503V27.9006H43.7155H44.337V13.9503V0H43.7155H43.0939V13.9503ZM65.4696 13.9503V27.9006H66.1602H66.8508V13.9503V0H66.1602H65.4696V13.9503ZM87.8453 13.9503V27.9006H88.4669H89.0884V13.9503V0H88.4669H87.8453V13.9503ZM110.221 13.9503V27.9006H110.912H111.602V13.9503V0H110.912H110.221V13.9503ZM132.735 13.9503V27.9006H133.356H133.978V13.9503V0H133.356H132.735V13.9503ZM30.3177 4.57928C28.9017 5.04958 27.5186 6.14144 26.9048 7.27362C26.1296 8.70359 26.0439 9.35732 26.0398 13.8812C26.0356 18.3747 26.0981 18.9018 26.8012 20.308C27.4851 21.6754 28.6681 22.672 30.2334 23.1993C31.4087 23.5952 33.6507 23.5938 34.8302 23.1964C35.8693 22.8464 37.1177 22.0151 37.6909 21.2913L38.1215 20.7475V17.2798V13.8122H35.2901H32.4586V14.779V15.7459H33.9779H35.4972V17.9296V20.1133L35.0809 20.5391C33.6105 22.0431 30.7023 21.7885 29.5082 20.0512C28.7141 18.8961 28.6639 18.5345 28.662 13.9503C28.6599 9.00345 28.7337 8.57555 29.7831 7.45359C30.8153 6.35014 32.2184 6.06934 33.7017 6.66934C34.301 6.91188 34.5551 7.11699 34.9055 7.64075C35.15 8.0058 35.3866 8.53384 35.4315 8.81395C35.6289 10.0446 35.4994 9.94475 36.897 9.94475H38.1533L38.0544 9.15055C37.8598 7.58895 37.0622 6.1308 36.0044 5.40304C34.9948 4.70843 33.8581 4.41837 32.1941 4.4308C31.3899 4.43674 30.5456 4.50359 30.3177 4.57928ZM142.61 4.6058C140.292 5.09903 138.767 6.54572 138.126 8.85843C137.872 9.77376 137.846 10.2651 137.85 14.0166C137.856 18.6075 137.925 19.1539 138.682 20.5743C139.383 21.8887 140.57 22.832 142.196 23.366C142.523 23.4732 143.398 23.5474 144.337 23.5474C146.592 23.5474 147.649 23.1528 149.126 21.7598L150 20.9352V17.4427V13.9503H147.093H144.186L144.227 14.8826L144.268 15.8149L145.822 15.854L147.376 15.8931V17.9818C147.376 19.9854 147.362 20.0887 147.038 20.514C146.516 21.1975 145.634 21.547 144.428 21.547C142.849 21.547 141.932 21.1141 141.215 20.0312C140.556 19.0349 140.473 18.3595 140.471 13.9715C140.469 9.49848 140.547 8.93204 141.304 7.88715C141.528 7.5779 141.976 7.15456 142.299 6.94641C142.821 6.61036 143.018 6.56782 144.061 6.56616C145.05 6.56464 145.327 6.61671 145.819 6.89738C146.574 7.32749 147.079 8.1029 147.296 9.16519L147.469 10.0138H148.7H149.931L149.976 9.61713C150.001 9.39903 149.955 9.15345 149.873 9.07155C149.791 8.98964 149.724 8.78149 149.724 8.60898C149.724 8.20456 149.165 6.96975 148.71 6.37086C147.611 4.92155 144.863 4.12652 142.61 4.6058ZM53.5048 5.21409C53.4622 5.34696 53.3749 5.61119 53.3109 5.80111C53.247 5.99102 53.0001 6.79903 52.7624 7.59668C52.5247 8.39434 52.2744 9.20235 52.2064 9.39227C52.1383 9.58218 51.763 10.7942 51.3725 12.0856C50.0533 16.4477 49.7847 17.329 48.8244 20.442C48.391 21.8474 48.0048 23.137 47.9662 23.308C47.8971 23.6135 47.9182 23.6188 49.2184 23.6188H50.5407L50.8141 22.6865C50.9644 22.1738 51.2652 21.1326 51.4826 20.3729L51.8779 18.9917H54.7666H57.6553L57.8834 19.6823C58.009 20.0622 58.1895 20.6526 58.2845 20.9945C58.3797 21.3363 58.5065 21.7714 58.5663 21.9613C58.6262 22.1512 58.7514 22.6018 58.8445 22.9627L59.0138 23.6188H60.3242C61.843 23.6188 61.7515 23.8631 61.074 21.616C60.845 20.8564 60.368 19.2714 60.0138 18.0939C59.6597 16.9164 59.2507 15.5646 59.1048 15.0898C58.4409 12.9276 58.2771 12.3856 57.7577 10.6354C56.658 6.92887 56.2115 5.49917 56.0717 5.23812C55.9485 5.00787 55.7728 4.97238 54.7559 4.97238C53.7601 4.97238 53.5707 5.00898 53.5048 5.21409ZM69.7054 5.0645C69.5714 5.19848 69.5964 23.2402 69.7308 23.4521C69.8123 23.5807 70.1698 23.6193 71.0064 23.5902L72.1685 23.5497L72.1367 16.7269C72.1192 12.9744 72.1459 9.94516 72.196 9.99516C72.246 10.0453 72.6137 11.1703 73.013 12.4953C73.8736 15.3511 74.6961 18.0269 74.8612 18.5083C74.9264 18.6982 75.2355 19.6927 75.5482 20.7182C76.4934 23.8184 76.3256 23.5432 77.2994 23.5903C78.2778 23.6377 78.1345 23.8467 78.9367 21.2017C79.2131 20.2901 79.6151 18.9848 79.8298 18.3011C80.0446 17.6174 80.4195 16.4054 80.663 15.6077C81.1555 13.9941 81.8218 11.8554 82.1231 10.9215C82.2316 10.5851 82.3204 10.2003 82.3204 10.0664C82.3204 9.93246 82.3907 9.77942 82.4767 9.72638C82.5925 9.65483 82.6041 10.5021 82.5213 12.9986C82.3977 16.729 82.3447 23.0001 82.4337 23.3771C82.4827 23.5848 82.663 23.6188 83.7178 23.6188H84.9447V14.2956V4.97238H83.3612C81.9939 4.97238 81.7602 5.00539 81.6499 5.21409C81.5796 5.34696 80.6438 8.56354 79.5704 12.3619C77.6359 19.2076 77.3978 19.9852 77.2735 19.8609C77.2381 19.8256 76.2807 16.5233 75.1459 12.5225C74.0109 8.52168 73.0441 5.18633 72.9971 5.11036C72.9029 4.95773 69.8546 4.91519 69.7054 5.0645ZM98.4081 5.13964C98.3707 5.23757 98.3561 9.41989 98.3758 14.4337L98.4116 23.5497H99.6547H100.898V14.2956V5.04144L99.687 5.00152C98.7961 4.9721 98.4581 5.00856 98.4081 5.13964ZM116.298 14.2956V23.6188H117.61H118.923V16.8508C118.923 13.1285 118.969 10.0855 119.026 10.0887C119.083 10.0917 120.559 12.9547 122.307 16.4507C124.054 19.9467 125.591 22.9896 125.723 23.213C125.96 23.6142 125.977 23.6188 127.208 23.6188H128.453V14.2902V4.9616L127.244 5.00152L126.036 5.04144L126 11.8728C125.969 17.7521 125.937 18.6659 125.772 18.43C125.599 18.1825 124.214 15.4786 120.243 7.63122L118.897 4.97238H117.598H116.298V14.2956ZM13.2761 5.42707C14.7644 5.92099 15.6967 6.67238 16.3108 7.87293C16.5809 8.4011 16.6298 8.71243 16.6362 9.94475C16.6463 11.892 16.2653 12.7816 15.042 13.6678L14.5047 14.0569L15.264 14.4285C16.1764 14.8749 16.7547 15.6396 17.0568 16.7993C17.7112 19.3117 16.743 21.9262 14.7891 22.9231C13.6536 23.5023 12.7075 23.6146 8.94337 23.6167L5.38674 23.6188V14.3497V5.08052L9.01243 5.14793C11.7535 5.19903 12.7938 5.26713 13.2761 5.42707ZM8.69226 8.14917C8.68702 8.3011 8.68287 9.38881 8.68287 10.5663C8.68287 11.7438 8.68702 12.7693 8.69226 12.8453C8.70442 13.0243 10.8312 13.0268 11.4526 12.8486C12.3877 12.5804 12.9834 11.6786 12.9834 10.5309C12.9834 8.61201 12.0859 7.87293 9.75608 7.87293C8.79682 7.87293 8.70083 7.89793 8.69226 8.14917ZM55.9086 12.6728C56.4615 14.6289 56.9504 16.3691 56.9952 16.5401L57.0764 16.8508H54.772C52.6421 16.8508 52.4731 16.8325 52.5392 16.6091C52.5786 16.4762 53.0514 14.8135 53.5898 12.9144C54.7351 8.87431 54.6583 9.11602 54.7954 9.11616C54.8547 9.11616 55.3557 10.7166 55.9086 12.6728ZM8.69047 15.6423C8.63273 16.5262 8.69102 20.5892 8.76298 20.7057C8.88785 20.9079 11.4214 20.903 12.0305 20.6994C12.2887 20.6131 12.6651 20.3896 12.8669 20.2026C13.8134 19.3256 13.7093 16.6793 12.6943 15.8253C12.2878 15.4833 12.203 15.4696 10.4866 15.4696C9.15677 15.4696 8.69876 15.5137 8.69047 15.6423Z" fill="white"/>
<path fill-rule="evenodd" clip-rule="evenodd" d="M0 13.9503V27.9006H11.0497H22.0994V13.9503V0H11.0497H0V13.9503ZM13.2761 5.42707C14.7644 5.92099 15.6967 6.67238 16.3108 7.87293C16.5809 8.4011 16.6298 8.71243 16.6362 9.94475C16.6463 11.892 16.2653 12.7816 15.042 13.6678L14.5047 14.0569L15.264 14.4285C16.1764 14.8749 16.7547 15.6396 17.0568 16.7993C17.7112 19.3117 16.743 21.9262 14.7891 22.9231C13.6536 23.5023 12.7075 23.6146 8.94337 23.6167L5.38674 23.6188V14.3497V5.08052L9.01243 5.14793C11.7535 5.19903 12.7938 5.26713 13.2761 5.42707ZM8.69226 8.14917C8.68702 8.3011 8.68287 9.38881 8.68287 10.5663C8.68287 11.7438 8.68702 12.7693 8.69226 12.8453C8.70442 13.0243 10.8312 13.0268 11.4526 12.8486C12.3877 12.5804 12.9834 11.6786 12.9834 10.5309C12.9834 8.61201 12.0859 7.87293 9.75608 7.87293C8.79682 7.87293 8.70083 7.89793 8.69226 8.14917ZM8.69047 15.6423C8.63273 16.5262 8.69102 20.5892 8.76298 20.7057C8.88785 20.9079 11.4214 20.903 12.0305 20.6994C12.2887 20.6131 12.6651 20.3896 12.8669 20.2026C13.8134 19.3256 13.7093 16.6793 12.6943 15.8253C12.2878 15.4833 12.203 15.4696 10.4866 15.4696C9.15677 15.4696 8.69876 15.5137 8.69047 15.6423Z" fill="#FFCC29"/>
</svg>
