<svg width="180" height="61" viewBox="0 0 180 61" fill="none" xmlns="http://www.w3.org/2000/svg">
<path fill-rule="evenodd" clip-rule="evenodd" d="M128.363 0.0589448C125.937 0.364683 123.824 1.86733 122.731 4.06455C122.078 5.37599 121.829 6.68386 121.977 8.02323C122.326 11.1819 124.437 13.5934 127.601 14.447C128.051 14.5685 128.358 14.5964 129.278 14.5998C130.578 14.6045 131.181 14.4895 132.25 14.0321C134.023 13.274 135.523 11.7247 136.19 9.96249C136.572 8.95211 136.66 8.45083 136.658 7.27697C136.656 6.37456 136.63 6.13272 136.471 5.53109C135.519 1.92934 132.058 -0.406647 128.363 0.0589448ZM20.338 3.40692C10.3425 4.03306 3.34832 8.55545 0.88306 15.9863C-1.09631 21.9524 0.314035 28.4676 4.4901 32.6494C8.16366 36.3281 13.6606 38.359 21.5347 38.9469C24.0086 39.1316 25.3406 39.5772 26.328 40.5503C27.0896 41.3008 27.4065 42.1373 27.4005 43.3818C27.3865 46.3291 24.6366 48.1822 19.6692 48.5918C18.5939 48.6804 15.8216 48.6404 14.3894 48.5156C10.1153 48.1431 5.12628 47.0228 1.66314 45.6577C1.36205 45.539 1.10073 45.4419 1.08236 45.4419C1.06398 45.4419 1.04899 48.4377 1.04899 52.0992V58.7565L1.38338 58.8355C4.31769 59.5296 5.88454 59.8338 8.29101 60.1762C14.5673 61.0696 22.2446 61.2604 26.5522 60.6302C31.9772 59.8364 36.4372 57.8544 39.6317 54.8178C42.3453 52.2382 44.0286 49.1203 44.7113 45.409C44.9237 44.2544 44.9424 41.0843 44.7439 39.89C44.1709 36.4415 42.7173 33.5653 40.3665 31.2284C36.5347 27.4193 30.7726 25.1997 23.1537 24.5979C20.6911 24.4034 19.7658 24.2159 18.6772 23.6906C17.2169 22.9858 16.5171 21.8651 16.5171 20.2314C16.5171 17.9463 17.9385 16.5115 20.8307 15.877C22.0741 15.6043 22.9572 15.5298 24.949 15.5296C27.4473 15.5293 29.4933 15.754 32.5168 16.3608C36.1487 17.0897 38.6698 17.8227 41.6385 19.0126C42.1609 19.2221 42.619 19.3934 42.6564 19.3934C42.6997 19.3934 42.7244 17.0475 42.7244 12.9426V6.49189L41.3341 6.03314C36.3761 4.39732 32.0864 3.64889 26.2514 3.40168C24.3797 3.32241 21.6485 3.32479 20.338 3.40692ZM60.9574 3.95624C59.2732 4.29166 55.8281 4.97108 53.3017 5.46601L48.7082 6.3659V33.3763V60.3867H56.452H64.1957V52.0597V43.7328L64.4385 44.0904C64.8161 44.6466 65.7068 46.2075 66.1724 47.1289C67.9734 50.6928 69.4965 54.9502 70.8219 60.1248L70.8889 60.3867H80.1386H89.3883L89.1852 59.6359C88.301 56.3679 85.8552 50.7498 82.6409 44.6039C81.7149 42.8332 80.4371 40.4739 79.7471 39.2609L79.5481 38.9111L80.3936 37.7943C83.7692 33.3361 86.7955 27.928 89.0452 22.3341C89.4925 21.2216 90.3837 18.771 90.3837 18.6533C90.3837 18.6376 86.4078 18.6327 81.5483 18.6424L72.713 18.6601L72.2666 19.7426C70.4513 24.1446 68.0849 28.1823 65.0464 32.0623L64.2309 33.1037L64.2132 18.2175C64.1991 6.37435 64.1774 3.33282 64.1076 3.33876C64.0592 3.34288 62.6417 3.62075 60.9574 3.95624ZM152.58 4.31359C149.599 4.84713 146.352 5.4262 145.364 5.60037C144.377 5.77447 143.482 5.93474 143.376 5.95653L143.182 5.99613V33.1914V60.3867H150.644H158.106V31.859C158.106 16.1687 158.083 3.33401 158.053 3.33736C158.025 3.34064 155.561 3.77998 152.58 4.31359ZM178.416 3.61167C177.603 3.75888 174.356 4.33747 171.2 4.89734C168.045 5.45728 165.376 5.93355 165.269 5.95576L165.076 5.99613V33.1914V60.3867H172.538H180V31.859C180 16.1687 179.976 3.33415 179.947 3.33764C179.918 3.34106 179.229 3.46439 178.416 3.61167ZM111.996 18.1119C111.86 18.1245 111.353 18.168 110.869 18.2085C107.048 18.528 103.436 19.4927 100.873 20.8786C96.0905 23.4641 93.4663 27.5638 92.6597 33.7096C92.5462 34.5736 92.534 35.7279 92.5133 47.5195L92.4907 60.3867H100.061H107.631L107.632 49.6495C107.632 42.955 107.66 38.5968 107.704 38.0743C107.856 36.304 108.137 35.1351 108.668 34.0588C108.949 33.4897 109.092 33.3009 109.669 32.7318C110.426 31.9848 111.109 31.5795 112.242 31.2042C113.32 30.8473 115.467 30.4991 116.607 30.4963C116.839 30.4957 117.101 30.4763 117.188 30.4532L117.346 30.4111V24.3483C117.346 18.6348 117.339 18.2833 117.223 18.2485C116.827 18.1299 115.684 18.0678 114.074 18.0777C113.067 18.0838 112.131 18.0992 111.996 18.1119ZM121.851 39.5408V60.3867H129.314H136.776V39.5408V18.695H129.314H121.851V39.5408Z" fill="#55366A"/>
</svg>
