<svg width="289" height="50" viewBox="0 0 289 50" fill="none" xmlns="http://www.w3.org/2000/svg">
<g clip-path="url(#clip0_112_1703)">
<path d="M283.711 3.80013C280.029 1.27409 274.455 0.000119334 267.149 0.000119334H248.015L240.902 38.6628H215.836L217.447 29.891H232.546L234.335 20.039L219.245 20.0607L220.86 11.3281H236.413L238.482 0.00237619H206.898L200.145 36.6763H188.554L195.352 0.000447254H178.842L172.089 36.6744H160.798L167.603 0.000447254H151.101L143.979 38.6631H118.733L120.329 29.8914H135.489L137.28 20.0953L122.135 20.08L123.741 11.3301H139.469L141.525 -0.000488281H43.1013L37.4992 30.6368L26.3429 -0.000488281H9.21287L-0.00671387 49.9995H16.3526L21.933 18.5173L32.7589 49.9995H91.3893L98.5179 11.3253H107.687L100.559 49.9995H254.827L259.3 25.5869L266.535 49.9995H282.903L275.405 30.0514L277.121 29.6818C280.899 28.871 283.845 27.1297 285.897 24.5188C287.947 21.8841 288.992 18.5014 288.992 14.4382C288.992 9.70778 287.263 6.2274 283.707 3.79722L283.711 3.80013ZM77.1533 38.6628H52.1114L53.7291 29.891H69.4362L71.2167 20.011H55.6608L57.1591 11.3306H82.1644L77.1486 38.6627L77.1533 38.6628ZM270.225 21.8212C268.579 22.9734 266.192 23.5342 262.929 23.5342H259.693L262.175 10.1165H264.555C267.265 10.1165 269.241 10.5513 270.604 11.4382C271.668 12.1339 272.934 13.51 272.934 16.1122C272.93 19.26 271.458 20.9513 270.22 21.8208L270.225 21.8212Z" fill="#55366A"/>
</g>
<defs>
<clipPath id="clip0_112_1703">
<rect width="289" height="50" fill="white"/>
</clipPath>
</defs>
</svg>
