<svg width="150" height="59" viewBox="0 0 150 59" fill="none" xmlns="http://www.w3.org/2000/svg">
<path d="M7.91903 58.8812C10.7837 58.8812 11.8424 57.2932 11.8424 55.7675C11.8424 51.813 5.55257 53.1831 5.55257 50.7855C5.55257 49.7891 6.4867 49.104 7.73221 49.104C8.8843 49.104 10.0053 49.4777 10.8148 50.3807L11.6244 49.4154C10.7214 48.4813 9.47591 47.9208 7.85676 47.9208C5.7394 47.9208 4.18252 49.1352 4.18252 50.8789C4.18252 54.6777 10.4723 53.1519 10.4723 55.892C10.4723 56.7327 9.8807 57.7291 7.98131 57.7291C6.70467 57.7291 5.4903 57.1687 4.64958 56.2034L3.84 57.2309C4.71186 58.1651 6.08191 58.8812 7.91903 58.8812ZM30.4004 58.6944V49.2597H33.7633V48.0765H25.7298V49.2597H29.0926V58.6944H30.4004ZM52.6327 58.8812C55.5285 58.8812 56.9919 57.1998 56.9919 54.5531V48.0765H55.653V54.5531C55.653 56.4837 54.5943 57.7291 52.6327 57.7291C50.671 57.7291 49.6434 56.5148 49.6434 54.5531V48.0765H48.3045V54.5842C48.2734 57.1687 49.768 58.8812 52.6327 58.8812ZM75.8302 57.5112H73.526V49.2286H75.8302C78.4458 49.2286 79.9092 51.0657 79.9092 53.3699C79.9092 55.6741 78.4146 57.5112 75.8302 57.5112ZM75.8302 58.6944C79.1308 58.6944 81.2793 56.4214 81.2793 53.401C81.2793 50.3807 79.1308 48.0765 75.8302 48.0765H72.2182V58.6944H75.8302ZM96.1008 58.6944H97.4086V48.0765H96.1008V58.6944ZM117.523 57.698C115.126 57.698 113.631 55.8609 113.631 53.3699C113.631 50.8789 115.157 49.0418 117.523 49.0418C119.89 49.0418 121.447 50.8789 121.447 53.3699C121.447 55.8609 119.89 57.698 117.523 57.698ZM117.523 58.8812C120.668 58.8812 122.817 56.5148 122.817 53.3699C122.817 50.225 120.668 47.8585 117.523 47.8585C114.379 47.8585 112.261 50.225 112.261 53.3699C112.23 56.5148 114.379 58.8812 117.523 58.8812ZM141.064 58.8812C143.928 58.8812 144.987 57.2932 144.987 55.7675C144.987 51.813 138.697 53.1831 138.697 50.7855C138.697 49.7891 139.631 49.104 140.877 49.104C142.029 49.104 143.15 49.4777 143.959 50.3807L144.769 49.4154C143.866 48.4813 142.62 47.9208 141.001 47.9208C138.884 47.9208 137.327 49.1352 137.327 50.8789C137.327 54.6777 143.617 53.1519 143.617 55.892C143.617 56.7327 143.025 57.7291 141.126 57.7291C139.849 57.7291 138.635 57.1687 137.794 56.2034L136.984 57.2309C137.856 58.1651 139.226 58.8812 141.064 58.8812ZM108.712 25.8442L108.68 37.6142H96.2253L50.2351 37.7388H12.9945C12.8699 37.7388 12.7142 37.7388 12.5897 37.7388C11.1885 37.7388 7.70107 37.4586 5.21006 34.8119C2.43881 31.8849 2.37653 28.3352 2.37653 27.7748V12.7664C2.3454 12.0191 2.3454 8.25147 5.17892 5.16885C7.51424 2.61556 11.1885 2.42873 12.2472 2.42873L63.4374 2.36646V24.6921H93.5475V2.55329H108.712L108.649 12.9844L123.222 2.55329H143.274L122.35 19.8658L143.492 37.6142H122.755L108.712 25.8442ZM126.055 19.8658L149.844 0.186828H122.474L111.047 8.37602L111.078 0.186828H91.181V22.3257H65.8039V0L12.2472 0.062279C10.9394 0.062279 6.42443 0.311376 3.43521 3.58083C0.0723499 7.22393 -0.0522005 11.5209 0.0100748 12.8287V27.7748C0.0100748 28.6466 0.134625 32.9125 3.49749 36.431C6.64239 39.7316 10.9082 40.1053 12.5897 40.1053H52.6015L98.5918 39.9807H111.047L111.078 30.8885L121.914 39.9807H150L126.055 19.8658Z" fill="white"/>
<path d="M47.8997 4.7952V13.0467H17.416C17.416 13.0467 16.513 12.9844 15.9525 13.6072C15.4232 14.1988 15.4854 14.9772 15.4854 14.9772V16.0982H47.8374V24.1939H15.4543V25.3149C15.4543 25.3149 15.4854 26.1245 15.9836 26.5604C16.6687 27.152 17.2914 27.0897 17.2914 27.0897H47.8997V35.3412H12.9321C12.9321 35.3412 9.25791 35.6214 6.92259 33.1616C4.68068 30.764 4.74295 27.7748 4.74295 27.7748V12.673C4.74295 12.673 4.52499 9.3413 6.92259 6.72574C8.85312 4.63952 12.3717 4.73293 12.3717 4.73293L47.8997 4.7952ZM50.3907 4.73293H61.0709V27.0586H93.89V35.3723H50.3907V4.73293ZM124 4.91975H136.735L118.676 19.8658L137.047 35.2789H123.658L106.407 20.8311L106.376 35.2789H95.9139V4.95089H106.376L106.314 17.655L124 4.91975Z" fill="white"/>
</svg>
