<svg width="150" height="54" viewBox="0 0 150 54" fill="none" xmlns="http://www.w3.org/2000/svg">
<path fill-rule="evenodd" clip-rule="evenodd" d="M76.9946 0.217517C76.949 0.337239 76.9319 12.2593 76.9564 26.7111L77.0012 52.9872L77.7407 53.0407L78.4803 53.0943V47.9508V42.8074H88.1381H97.7958V39.7622V36.7169H90.4002H83.0046V33.1517V29.5867L89.3126 29.5409L95.6207 29.4954L95.6682 26.4066L95.7157 23.3179H89.3602H83.0046V19.8376V16.3573H90.4002H97.7958V13.3121V10.2668H88.1381H78.4803V5.13341V0H77.7788C77.3777 0 77.0419 0.0930974 76.9946 0.217517ZM0 26.5371V42.8074H3.21926H6.43852V32.8538C6.43852 26.4211 6.4982 22.9599 6.60731 23.069C6.70023 23.1619 7.89432 25.0416 9.26102 27.2461C10.6277 29.4505 13.3904 33.852 15.4002 37.027L19.0545 42.7999L21.9693 42.8038L24.884 42.8074V26.5371V10.2668H21.6661H18.4483L18.4034 20.2105L18.3585 30.1542L15.8501 26.0835C14.4705 23.8446 11.6582 19.37 9.6007 16.1398L5.85957 10.2668H2.92987H0V26.5371ZM28.5383 26.5371V42.8074H39.2401H49.942V39.7641V36.7206L42.5029 36.6753L35.0638 36.6299L35.0167 33.1061L34.9697 29.5824H41.3247H47.6798V26.4501V23.3179H41.3247H34.9695L35.0167 19.8811L35.0638 16.4443L42.5029 16.3989L49.942 16.3537V13.3102V10.2668H39.2401H28.5383V26.5371ZM52.5522 13.3991V16.5313H56.2935H60.0348V29.6694V42.8074H63.2541H66.4733V29.6694V16.5313H70.2146H73.9559V13.3991V10.2668H63.2541H52.5522V13.3991ZM101.102 26.5371V42.8074H104.32H107.538L107.583 32.8641L107.628 22.9208L109.44 25.86C110.437 27.4766 113.244 31.9512 115.68 35.8034L120.107 42.8074H123.047H125.986V26.5371V10.2668H122.767H119.548V20.2204C119.548 27.3828 119.494 30.1209 119.359 29.985C119.255 29.881 117.865 27.6881 116.27 25.1118C114.675 22.5355 111.921 18.1453 110.151 15.3559L106.932 10.284L104.017 10.2755L101.102 10.2668V26.5371ZM128.596 13.3991V16.5313H132.338H136.079V29.6694V42.8074H139.297H142.515L142.56 29.7129L142.604 16.6183L146.302 16.5713L150 16.5244V13.3956V10.2668H139.298H128.596V13.3991Z" fill="white"/>
</svg>
