<svg width="150" height="74" viewBox="0 0 150 74" fill="none" xmlns="http://www.w3.org/2000/svg">
<path fill-rule="evenodd" clip-rule="evenodd" d="M87.8223 1.9428C106.778 8.54835 118.015 16.0521 122.147 24.8639C123.529 27.8119 123.644 28.4412 123.436 31.9061C123.155 36.5851 121.748 39.5772 117.86 43.769C106.838 55.6511 79.5932 65.3854 44.9106 69.8342C35.85 70.9962 21.8792 72.0053 8.94417 72.4321C-6.25947 72.9332 -2.15781 73.3882 21.8425 73.8621C39.9552 74.2195 51.6346 73.812 65.9944 72.3222C106.543 68.1151 137.856 57.0677 147.067 43.72C155.419 31.617 145.708 18.9887 120.812 9.57723C111.841 6.18608 98.6564 2.72758 87.3262 0.793602C85.5527 0.491077 83.5435 0.139537 82.8614 0.012288C82.1793 -0.114466 84.4117 0.753995 87.8223 1.9428ZM18.103 18.2579C17.973 18.5985 16.4128 24.2242 14.6358 30.7599C12.8583 37.2956 11.2822 43.0327 11.1329 43.5095C10.8834 44.3062 11.4201 44.376 17.8113 44.376C21.6331 44.376 24.8557 44.2087 24.9728 44.0047C25.0894 43.8007 25.3359 42.798 25.5205 41.7766L25.8563 39.9198H21.0671H16.2778L16.6008 38.5582C16.7784 37.8096 17.2551 36.0266 17.6604 34.5972L18.3976 31.9977H23.2826H28.1676L28.4777 30.4505C28.6483 29.5993 28.7877 28.7081 28.7877 28.4699C28.7877 28.2318 26.6521 28.0367 24.0416 28.0367C18.7077 28.0367 19.0822 28.4675 20.5978 24.0756L21.1961 22.3427L26.2135 22.2016L31.231 22.061L31.7429 20.2211C32.0242 19.2095 32.2559 18.2143 32.2574 18.0103C32.2589 17.8063 29.128 17.6389 25.2997 17.6389C20.1875 17.6389 18.2761 17.8033 18.103 18.2579ZM43.1207 18.8045C39.5995 20.2503 37.6905 21.6089 35.7568 24.0454C33.0511 27.4549 32.1348 30.1796 32.3387 34.2095C32.5764 38.9048 34.0453 41.2458 37.95 43.1526C40.42 44.3587 41.1235 44.4785 44.5678 44.2795C47.6054 44.1037 48.98 43.7531 51.0606 42.6228C55.1211 40.4174 58.1969 36.3782 59.2466 31.874L59.5641 30.5124H52.9602H46.3557L45.8264 32.4929L45.2966 34.4734H49.4444C51.7259 34.4734 53.5922 34.6061 53.5922 34.7685C53.5922 35.6335 51.2804 38.0893 49.4672 39.1494C46.3795 40.9557 43.778 41.223 41.0441 40.0159C38.143 38.735 37.0149 36.7223 37.0426 32.8766C37.1061 24.1539 48.5281 17.9618 54.2837 23.5295L55.8459 25.0412L57.8169 23.8538L59.7873 22.667L57.7722 20.7533C54.2758 17.434 48.3718 16.6487 43.1207 18.8045ZM65.2785 18.2579C65.1744 18.5985 64.8584 19.6012 64.5756 20.486L64.0616 22.0951H67.0456C69.655 22.0951 69.9978 22.2041 69.7731 22.9616C69.6322 23.4384 68.266 28.1729 66.737 33.4831C65.2081 38.7934 63.8647 43.417 63.7511 43.7571C63.6077 44.1879 64.1901 44.376 65.667 44.376H67.7887L70.9846 33.239L74.1799 22.1026L77.1678 22.0986L80.1553 22.0951L80.6732 19.867L81.1911 17.6389H73.3291C67.4708 17.6389 65.4189 17.7969 65.2785 18.2579ZM102.791 18.346C92.9677 21.5317 90.013 33.6342 97.2966 40.8487C102.587 46.0887 111.608 45.7049 116.616 40.0263C118.635 37.7378 120.068 34.0951 120.068 31.255C120.068 26.6127 116.671 21.197 112.497 19.1833C109.685 17.8271 105.504 17.4666 102.791 18.346Z" fill="white"/>
</svg>
