<svg width="100" height="100" viewBox="0 0 100 100" fill="none" xmlns="http://www.w3.org/2000/svg">
<rect width="100" height="100" rx="15" fill="#251730"/>
<path fill-rule="evenodd" clip-rule="evenodd" d="M45.2022 26.5706C44.6079 26.7331 39.0594 28.2227 32.8722 29.8809C26.685 31.5391 21.3174 33.0335 20.9442 33.2019C20.5711 33.3704 20.0849 33.6596 19.8637 33.8446C18.7726 34.7579 18 36.3817 18 37.7612C18 38.6719 28.6776 78.5586 29.1577 79.4415C29.6332 80.3159 30.8005 81.3524 31.692 81.6919C33.1841 82.26 33.68 82.2136 37.7784 81.1215C53.2549 76.9974 59.0863 75.4155 59.6719 75.1825C60.6807 74.7809 61.6316 73.8441 62.2021 72.6899C62.6431 71.7976 62.6794 71.6402 62.6764 70.6361C62.6733 69.6082 62.3778 68.4489 57.2959 49.5282C53.6276 35.8706 51.8109 29.3091 51.5794 28.8825C51.0989 27.9972 50.2869 27.235 49.3136 26.7558C48.18 26.1978 46.7941 26.1354 45.2022 26.5706ZM38.6705 43.8379C39.5051 44.4842 47.3596 51.454 47.6051 51.766C47.7517 51.9522 47.8715 52.2428 47.8715 52.4116C47.8715 52.8622 44.0871 64.0306 43.8431 64.3004C43.5646 64.608 42.793 64.8262 42.4461 64.6956C42.1284 64.5758 33.3482 56.8882 33.0612 56.4785C32.9572 56.33 32.8722 56.0554 32.8722 55.8682C32.8722 55.681 33.7306 52.9909 34.7797 49.8903C36.425 45.0279 36.7397 44.205 37.0697 43.9035C37.5486 43.4659 38.1579 43.441 38.6705 43.8379Z" fill="url(#paint0_linear_112_1151)"/>
<path fill-rule="evenodd" clip-rule="evenodd" d="M52.2882 17.1254C50.9666 17.4368 49.6757 18.4376 49.028 19.6525C48.621 20.4162 48.1629 22.299 48.3459 22.4562C48.3996 22.5024 48.7868 22.6112 49.2062 22.6981C50.8896 23.047 52.9269 24.3233 54.042 25.7274C55.013 26.95 55.5273 28.2123 56.4025 31.5205L57.2039 34.55L57.5905 34.4454C57.8031 34.3878 58.4918 34.3401 59.121 34.3395C60.1163 34.3384 60.3586 34.3842 60.985 34.6917C61.8587 35.1209 62.6595 35.8964 63.0746 36.7156L63.3834 37.325L64.0655 36.7694C65.0446 35.9719 65.7459 35.736 67.1291 35.7388C68.1155 35.7408 68.3717 35.7892 68.9883 36.0902C70.341 36.7503 71.4011 38.2444 71.5783 39.7405C71.7344 41.0589 70.9917 43.3754 69.8439 45.1497C68.3448 47.4667 65.7995 49.9754 63.025 51.8705C62.5208 52.2149 62.1082 52.5743 62.1082 52.6694C62.1082 52.7644 63.0562 56.3722 64.2149 60.6868C65.3865 65.0496 66.3855 69.0271 66.4656 69.648C66.5893 70.6075 66.6461 70.7723 66.8693 70.8208C68.2382 71.1181 70.3485 71.4146 71.0696 71.4108C72.9826 71.4009 74.739 70.2701 75.5321 68.5379C75.7741 68.0092 76.6209 63.4524 79.4693 47.3514C83.5436 24.3206 83.3448 25.8336 82.5167 24.1581C82.246 23.6104 81.8381 23.0392 81.4859 22.7145C80.2848 21.6074 80.547 21.669 66.6188 19.2215C59.6267 17.9927 53.6492 16.993 53.3355 17C53.0219 17.0072 52.5507 17.0635 52.2882 17.1254Z" fill="url(#paint1_linear_112_1151)"/>
<defs>
<linearGradient id="paint0_linear_112_1151" x1="62.6538" y1="22.5078" x2="-0.667344" y2="51.5129" gradientUnits="userSpaceOnUse">
<stop stop-color="#FFD03D"/>
<stop offset="1" stop-color="#B98F0C"/>
</linearGradient>
<linearGradient id="paint1_linear_112_1151" x1="51.0769" y1="71.4108" x2="93.0556" y2="61.209" gradientUnits="userSpaceOnUse">
<stop stop-color="#7B199B"/>
<stop offset="1" stop-color="#A90BDE"/>
</linearGradient>
</defs>
</svg>
