<svg width="100" height="100" viewBox="0 0 100 100" fill="none" xmlns="http://www.w3.org/2000/svg">
<rect width="100" height="100" rx="15" fill="#251730"/>
<path fill-rule="evenodd" clip-rule="evenodd" d="M67.3887 54.3508C64.3441 54.9578 62.0468 57.464 61.6541 60.6068L61.566 61.3114L60.6537 61.4474C58.4727 61.7724 56.7765 62.8684 55.5716 64.731C54.1488 66.9308 54.1591 70.0762 55.5966 72.3163C56.1175 73.128 57.4038 74.3253 58.2394 74.7764C59.0763 75.2281 60.6627 75.6345 61.578 75.6317C63.4779 75.6257 65.3245 74.8391 66.7021 73.4485L67.5451 72.5978L67.1309 73.7017C66.3932 75.6678 66.1756 76.1667 65.3457 77.793C64.8965 78.6735 64.2116 79.8135 63.8239 80.3263C62.6824 81.8362 62.8097 81.9366 64.995 81.2508C67.0075 80.6192 68.1275 80.354 68.7908 80.352C69.3562 80.3503 71.0994 80.7875 72.898 81.3821C74.6009 81.9449 74.7101 81.7801 73.6316 80.2768C72.7536 79.0533 71.9824 77.6362 71.2082 75.8251C70.7253 74.6949 70.0016 72.7763 70.0016 72.6258C70.0016 72.6082 70.3248 72.9327 70.7199 73.347C72.9602 75.6957 76.0994 76.2646 79.0307 74.8527C83.1775 72.8557 84.3087 67.2819 81.2717 63.8103C80.1571 62.536 78.3158 61.5786 76.6436 61.4039L75.8984 61.326L75.8244 60.5348C75.7297 59.5206 75.2514 58.2542 74.6016 57.2973C73.0699 55.0417 70.0702 53.8162 67.3887 54.3508Z" fill="url(#paint0_linear_112_1131)"/>
<path fill-rule="evenodd" clip-rule="evenodd" d="M24.0534 54.3023C21.2269 54.7391 18.7879 57.0955 18.1715 59.985C17.4719 63.2649 19.2071 67.6547 23.1406 72.5558C25.4468 75.4292 29.8858 80.1616 30.9796 80.9131C31.6202 81.3531 32.3562 81.4042 33.039 81.0561C33.6068 80.7667 36.5539 77.8107 38.8257 75.2519C40.6359 73.2131 42.6737 70.5886 43.5812 69.1272C44.9744 66.884 45.9202 64.5059 46.1688 62.6208C46.7526 58.1949 43.6192 54.3722 39.3638 54.3188C38.1126 54.3032 37.2004 54.5017 36.098 55.03C34.7712 55.6659 33.0624 57.5217 32.2127 59.2495C32.1702 59.3362 32.1206 59.3274 32.0725 59.2244C31.8688 58.7882 30.7075 57.1124 30.2836 56.6431C29.5828 55.8676 28.3549 55.0348 27.3596 54.6602C26.4961 54.3352 24.9345 54.1661 24.0534 54.3023Z" fill="url(#paint1_linear_112_1131)"/>
<path fill-rule="evenodd" clip-rule="evenodd" d="M30.935 18.3604C29.1789 19.2897 26.0579 21.6193 23.5688 23.8589C17.4268 29.385 16.3862 33.6976 20.344 37.2251C21.7192 38.4507 23.2937 39.05 25.1454 39.0526C27.003 39.0551 28.5845 38.3906 29.9874 37.0177C30.404 36.6101 30.7446 36.3137 30.7442 36.3589C30.7429 36.5335 29.8608 38.7896 29.3656 39.8849C28.4845 41.834 27.1558 44.0755 26.6159 44.5236C26.3886 44.7121 26.3433 45.1149 26.5357 45.2338C26.6042 45.2761 27.3868 45.0785 28.2747 44.7946C29.1629 44.5108 30.3653 44.1805 30.947 44.0607C32.2657 43.7894 32.9677 43.8909 35.5763 44.731C37.1786 45.2468 37.4296 45.2972 37.5921 45.1347C37.7544 44.9722 37.6828 44.8211 37.016 43.9218C35.9336 42.462 34.6358 39.872 33.6581 37.2203L33.2863 36.2119L34.1834 37.0581C35.624 38.4173 37.1488 39.0541 38.9621 39.0541C39.5305 39.0541 40.3235 38.9687 40.7243 38.8643C43.4943 38.1428 45.7697 35.7144 46.1059 33.1207C46.2839 31.7475 45.5655 29.698 44.2631 27.8637C42.5518 25.4534 38.5207 21.8386 34.718 19.3046C32.6418 17.9209 32.0464 17.7723 30.935 18.3604Z" fill="url(#paint2_linear_112_1131)"/>
<path fill-rule="evenodd" clip-rule="evenodd" d="M68.5666 18.2467C68.4566 18.3695 67.6878 19.3654 66.858 20.4602C63.8661 24.4072 63.1976 25.0672 57.7657 29.4367C56.3987 30.5364 55.2321 31.5195 55.1732 31.6218C54.947 32.0141 55.2451 32.4208 56.5214 33.461C57.2408 34.0473 59.0116 35.5416 60.4564 36.7816C63.2137 39.1481 64.1438 40.1348 66.9726 43.6941C68.5139 45.6332 68.887 45.9548 69.3413 45.7359C69.476 45.671 70.2708 44.7577 71.1077 43.7062C74.4836 39.4644 75.0878 38.8622 80.4608 34.3826C83.1322 32.1554 83.2659 31.9857 82.779 31.4396C82.6564 31.3021 81.3775 30.2116 79.9372 29.0163C75.2026 25.0872 74.1889 24.0693 71.0843 20.1267C69.3601 17.9369 69.051 17.7062 68.5666 18.2467Z" fill="url(#paint3_linear_112_1131)"/>
<defs>
<linearGradient id="paint0_linear_112_1131" x1="56.7873" y1="81.6798" x2="88.3475" y2="69.2017" gradientUnits="userSpaceOnUse">
<stop stop-color="#7B199B"/>
<stop offset="1" stop-color="#A90BDE"/>
</linearGradient>
<linearGradient id="paint1_linear_112_1131" x1="46.2246" y1="52.4241" x2="10.549" y2="73.7196" gradientUnits="userSpaceOnUse">
<stop stop-color="#FFD03D"/>
<stop offset="1" stop-color="#B98F0C"/>
</linearGradient>
<linearGradient id="paint2_linear_112_1131" x1="20.248" y1="45.2395" x2="51.4499" y2="32.9422" gradientUnits="userSpaceOnUse">
<stop stop-color="#7B199B"/>
<stop offset="1" stop-color="#A90BDE"/>
</linearGradient>
<linearGradient id="paint3_linear_112_1131" x1="82.9858" y1="16.1174" x2="47.0014" y2="36.7665" gradientUnits="userSpaceOnUse">
<stop stop-color="#FFD03D"/>
<stop offset="1" stop-color="#B98F0C"/>
</linearGradient>
</defs>
</svg>
