<svg width="40" height="40" viewBox="0 0 40 40" fill="none" xmlns="http://www.w3.org/2000/svg">
<path fill-rule="evenodd" clip-rule="evenodd" d="M5.2071 0C1.53846 0 0 1.89349 0 5.2071V34.7929C0 38.5799 2.36686 40 5.2071 40H35.1479C38.4615 40 40 37.7515 40 35.1479V5.2071C40 1.89349 38.4615 0 34.7929 0H5.2071ZM14.4 10.4C14.4 12.6091 12.6091 14.4 10.4 14.4C8.19086 14.4 6.4 12.6091 6.4 10.4C6.4 8.19086 8.19086 6.4 10.4 6.4C12.6091 6.4 14.4 8.19086 14.4 10.4ZM29.6 33.6C31.8091 33.6 33.6 31.8091 33.6 29.6C33.6 27.3909 31.8091 25.6 29.6 25.6C27.3909 25.6 25.6 27.3909 25.6 29.6C25.6 31.8091 27.3909 33.6 29.6 33.6ZM33.6 10.4C33.6 12.6091 31.8091 14.4 29.6 14.4C27.3909 14.4 25.6 12.6091 25.6 10.4C25.6 8.19086 27.3909 6.4 29.6 6.4C31.8091 6.4 33.6 8.19086 33.6 10.4ZM10.4 33.6C12.6091 33.6 14.4 31.8091 14.4 29.6C14.4 27.3909 12.6091 25.6 10.4 25.6C8.19086 25.6 6.4 27.3909 6.4 29.6C6.4 31.8091 8.19086 33.6 10.4 33.6Z" fill="url(#paint0_linear_112_1193)"/>
<defs>
<linearGradient id="paint0_linear_112_1193" x1="3.19631" y1="40" x2="47.9505" y2="22.9433" gradientUnits="userSpaceOnUse">
<stop stop-color="#7B199B"/>
<stop offset="1" stop-color="#A90BDE"/>
</linearGradient>
</defs>
</svg>
