<svg width="266" height="327" viewBox="0 0 266 327" fill="none" xmlns="http://www.w3.org/2000/svg">
<g filter="url(#filter0_d_244_395)">
<path d="M149.543 65.912H148.043V67.412H149.543V65.912ZM167.543 65.912H169.043V64.412H167.543V65.912ZM167.543 77V78.5H169.043V77H167.543ZM138.023 77H136.523V78.5H138.023V77ZM138.023 26.6V25.1H136.523V26.6H138.023ZM149.543 26.6H151.043V25.1H149.543V26.6ZM149.543 67.412H167.543V64.412H149.543V67.412ZM166.043 65.912V77H169.043V65.912H166.043ZM167.543 75.5H138.023V78.5H167.543V75.5ZM139.523 77V26.6H136.523V77H139.523ZM138.023 28.1H149.543V25.1H138.023V28.1ZM148.043 26.6V65.912H151.043V26.6H148.043ZM145.23 98.6V97.1H143.73V98.6H145.23ZM156.75 98.6H158.25V97.1H156.75V98.6ZM156.75 149V150.5H158.25V149H156.75ZM145.23 149H143.73V150.5H145.23V149ZM145.23 100.1H156.75V97.1H145.23V100.1ZM155.25 98.6V149H158.25V98.6H155.25ZM156.75 147.5H145.23V150.5H156.75V147.5ZM146.73 149V98.6H143.73V149H146.73ZM143.65 221L142.224 221.465L142.561 222.5H143.65V221ZM127.234 170.6V169.1H125.168L125.808 171.065L127.234 170.6ZM139.834 170.6L141.271 170.168L140.949 169.1H139.834V170.6ZM150.994 207.68L149.558 208.112L150.994 212.885L152.431 208.112L150.994 207.68ZM162.154 170.6V169.1H161.039L160.718 170.168L162.154 170.6ZM174.754 170.6L176.181 171.065L176.821 169.1H174.754V170.6ZM158.338 221V222.5H159.427L159.765 221.465L158.338 221ZM145.077 220.535L128.661 170.135L125.808 171.065L142.224 221.465L145.077 220.535ZM127.234 172.1H139.834V169.1H127.234V172.1ZM138.398 171.032L149.558 208.112L152.431 207.248L141.271 170.168L138.398 171.032ZM152.431 208.112L163.591 171.032L160.718 170.168L149.558 207.248L152.431 208.112ZM162.154 172.1H174.754V169.1H162.154V172.1ZM173.328 170.135L156.912 220.535L159.765 221.465L176.181 171.065L173.328 170.135ZM158.338 219.5H143.65V222.5H158.338V219.5ZM147.75 281.912H146.25V283.412H147.75V281.912ZM167.91 281.912H169.41V280.412H167.91V281.912ZM167.91 293V294.5H169.41V293H167.91ZM136.23 293H134.73V294.5H136.23V293ZM136.23 242.6V241.1H134.73V242.6H136.23ZM167.55 242.6H169.05V241.1H167.55V242.6ZM167.55 253.688V255.188H169.05V253.688H167.55ZM147.75 253.688V252.188H146.25V253.688H147.75ZM147.75 262.04H146.25V263.54H147.75V262.04ZM165.75 262.04H167.25V260.54H165.75V262.04ZM165.75 272.984V274.484H167.25V272.984H165.75ZM147.75 272.984V271.484H146.25V272.984H147.75ZM147.75 283.412H167.91V280.412H147.75V283.412ZM166.41 281.912V293H169.41V281.912H166.41ZM167.91 291.5H136.23V294.5H167.91V291.5ZM137.73 293V242.6H134.73V293H137.73ZM136.23 244.1H167.55V241.1H136.23V244.1ZM166.05 242.6V253.688H169.05V242.6H166.05ZM167.55 252.188H147.75V255.188H167.55V252.188ZM146.25 253.688V262.04H149.25V253.688H146.25ZM147.75 263.54H165.75V260.54H147.75V263.54ZM164.25 262.04V272.984H167.25V262.04H164.25ZM165.75 271.484H147.75V274.484H165.75V271.484ZM146.25 272.984V281.912H149.25V272.984H146.25Z" fill="#9113BB"/>
</g>
<path d="M9.65022 152.52L8.57941 153.57L8.58446 153.576L8.58956 153.581L9.65022 152.52ZM9.65022 115.152L8.5845 114.096L8.58445 114.096L9.65022 115.152ZM40.9702 110.76L40.2473 112.074L40.2537 112.078L40.2601 112.081L40.9702 110.76ZM50.0422 119.256L50.7945 120.554L52.1248 119.783L51.3209 118.472L50.0422 119.256ZM40.1062 125.016L38.798 125.75L39.5423 127.077L40.8585 126.314L40.1062 125.016ZM35.3542 120.48L34.6467 121.803L34.6588 121.809L34.671 121.815L35.3542 120.48ZM17.7142 122.928L16.6442 121.877L16.6348 121.886L17.7142 122.928ZM17.7142 144.672L16.6347 145.714L16.6442 145.723L17.7142 144.672ZM35.3542 147.12L34.6593 145.791L34.653 145.794L34.6467 145.797L35.3542 147.12ZM40.1062 142.584L40.8585 141.286L39.5312 140.517L38.7919 141.861L40.1062 142.584ZM50.0422 148.344L51.3285 149.116L52.1119 147.81L50.7945 147.046L50.0422 148.344ZM41.0422 156.912L41.7524 158.233L41.7588 158.23L41.7651 158.226L41.0422 156.912ZM28.4422 158.508C21.2743 158.508 15.4012 156.15 10.7109 151.459L8.58956 153.581C13.8832 158.874 20.5381 161.508 28.4422 161.508V158.508ZM10.721 151.47C6.0681 146.726 3.73422 140.871 3.73422 133.8H0.734219C0.734219 141.609 3.34434 148.234 8.57941 153.57L10.721 151.47ZM3.73422 133.8C3.73422 126.729 6.06783 120.901 10.716 116.208L8.58445 114.096C3.34461 119.387 0.734219 125.991 0.734219 133.8H3.73422ZM10.7159 116.208C15.4073 111.471 21.2788 109.092 28.4422 109.092V106.092C20.5336 106.092 13.8771 108.753 8.5845 114.096L10.7159 116.208ZM28.4422 109.092C32.7092 109.092 36.6355 110.088 40.2473 112.074L41.6931 109.446C37.6249 107.208 33.1992 106.092 28.4422 106.092V109.092ZM40.2601 112.081C43.8743 114.024 46.6989 116.674 48.7636 120.04L51.3209 118.472C48.9696 114.638 45.7461 111.624 41.6804 109.439L40.2601 112.081ZM49.2899 117.958L39.3539 123.718L40.8585 126.314L50.7945 120.554L49.2899 117.958ZM41.4144 124.282C40.1617 122.049 38.3568 120.331 36.0374 119.145L34.671 121.815C36.4796 122.741 37.8427 124.047 38.798 125.75L41.4144 124.282ZM36.0617 119.157C33.7615 117.927 31.2111 117.324 28.4422 117.324V120.324C30.7614 120.324 32.819 120.825 34.6467 121.803L36.0617 119.157ZM28.4422 117.324C23.6472 117.324 19.6607 118.806 16.6442 121.877L18.7842 123.979C21.1438 121.578 24.3092 120.324 28.4422 120.324V117.324ZM16.6348 121.886C13.6756 124.953 12.2542 128.977 12.2542 133.8H15.2542C15.2542 129.599 16.4729 126.375 18.7936 123.97L16.6348 121.886ZM12.2542 133.8C12.2542 138.623 13.6756 142.647 16.6348 145.714L18.7936 143.63C16.4729 141.225 15.2542 138.001 15.2542 133.8H12.2542ZM16.6442 145.723C19.6607 148.794 23.6472 150.276 28.4422 150.276V147.276C24.3092 147.276 21.1438 146.022 18.7842 143.621L16.6442 145.723ZM28.4422 150.276C31.2111 150.276 33.7615 149.673 36.0617 148.443L34.6467 145.797C32.819 146.775 30.7614 147.276 28.4422 147.276V150.276ZM36.0491 148.449C38.3988 147.221 40.2098 145.508 41.4205 143.307L38.7919 141.861C37.8907 143.5 36.5336 144.811 34.6593 145.791L36.0491 148.449ZM39.3539 143.882L49.2899 149.642L50.7945 147.046L40.8585 141.286L39.3539 143.882ZM48.756 147.572C46.7386 150.935 43.9375 153.608 40.3193 155.598L41.7651 158.226C45.8269 155.992 49.0258 152.953 51.3285 149.116L48.756 147.572ZM40.3321 155.591C36.7205 157.532 32.7662 158.508 28.4422 158.508V161.508C33.2383 161.508 37.6839 160.42 41.7524 158.233L40.3321 155.591ZM87.4811 159L86.0517 159.455L86.3843 160.5H87.4811V159ZM84.9611 151.08L86.3905 150.625L86.0579 149.58H84.9611V151.08ZM66.2411 151.08V149.58H65.1443L64.8117 150.625L66.2411 151.08ZM63.7211 159V160.5H64.8179L65.1505 159.455L63.7211 159ZM51.1211 159L49.7009 158.517L49.0268 160.5H51.1211V159ZM68.2571 108.6V107.1H67.1828L66.8369 108.117L68.2571 108.6ZM82.9451 108.6L84.3653 108.117L84.0194 107.1H82.9451V108.6ZM100.081 159V160.5H102.175L101.501 158.517L100.081 159ZM69.6971 140.28L68.2681 139.824L67.644 141.78H69.6971V140.28ZM81.5051 140.28V141.78H83.5582L82.9341 139.824L81.5051 140.28ZM75.6011 121.776L77.0301 121.32L75.6011 116.841L74.1721 121.32L75.6011 121.776ZM88.9105 158.545L86.3905 150.625L83.5317 151.535L86.0517 159.455L88.9105 158.545ZM84.9611 149.58H66.2411V152.58H84.9611V149.58ZM64.8117 150.625L62.2917 158.545L65.1505 159.455L67.6705 151.535L64.8117 150.625ZM63.7211 157.5H51.1211V160.5H63.7211V157.5ZM52.5413 159.483L69.6773 109.083L66.8369 108.117L49.7009 158.517L52.5413 159.483ZM68.2571 110.1H82.9451V107.1H68.2571V110.1ZM81.5249 109.083L98.6609 159.483L101.501 158.517L84.3653 108.117L81.5249 109.083ZM100.081 157.5H87.4811V160.5H100.081V157.5ZM69.6971 141.78H81.5051V138.78H69.6971V141.78ZM82.9341 139.824L77.0301 121.32L74.1721 122.232L80.0761 140.736L82.9341 139.824ZM74.1721 121.32L68.2681 139.824L71.1261 140.736L77.0301 122.232L74.1721 121.32ZM108.076 156.696L107.248 157.947L107.258 157.953L107.268 157.96L108.076 156.696ZM100.804 147.552L100.052 146.254L98.9539 146.891L99.3994 148.079L100.804 147.552ZM110.74 141.792L112.116 141.196L111.446 139.649L109.988 140.494L110.74 141.792ZM125.932 141.216L125.16 142.502L125.185 142.517L125.211 142.531L125.932 141.216ZM117.724 138.264L118.12 136.817L118.119 136.817L117.724 138.264ZM112.18 136.32L112.801 134.954L112.18 136.32ZM107.5 133.512L106.558 134.68L106.579 134.696L106.6 134.712L107.5 133.512ZM104.044 129.048L102.667 129.643L102.674 129.659L102.681 129.674L104.044 129.048ZM107.86 111.768L106.903 110.613L106.895 110.62L107.86 111.768ZM130.756 110.544L129.964 111.818L129.971 111.823L129.978 111.827L130.756 110.544ZM138.244 118.968L139.001 120.263L140.207 119.557L139.589 118.304L138.244 118.968ZM128.524 124.656L127.169 125.3L127.87 126.776L129.282 125.951L128.524 124.656ZM125.14 120.336L124.24 121.536L124.254 121.546L124.268 121.557L125.14 120.336ZM115.78 119.976L116.709 121.153L116.717 121.147L115.78 119.976ZM116.14 125.88L115.209 127.056L115.22 127.065L115.232 127.074L116.14 125.88ZM123.484 128.904L123.927 127.471L123.92 127.469L123.913 127.467L123.484 128.904ZM128.164 130.416L127.671 131.833L128.164 130.416ZM132.34 132.36L131.624 133.678L131.646 133.69L131.669 133.702L132.34 132.36ZM136.228 135.168L135.089 136.144L135.114 136.173L135.14 136.201L136.228 135.168ZM138.604 139.056L137.217 139.627L137.227 139.652L137.238 139.677L138.604 139.056ZM134.5 155.904L135.431 157.08L135.441 157.072L134.5 155.904ZM120.964 158.508C116.042 158.508 112.044 157.451 108.883 155.432L107.268 157.96C111.02 160.357 115.614 161.508 120.964 161.508V158.508ZM108.904 155.445C105.761 153.364 103.538 150.57 102.208 147.025L99.3994 148.079C100.95 152.214 103.575 155.516 107.248 157.947L108.904 155.445ZM101.556 148.85L111.492 143.09L109.988 140.494L100.052 146.254L101.556 148.85ZM109.363 142.388C110.464 144.929 112.019 146.928 114.072 148.282C116.125 149.637 118.568 150.276 121.324 150.276V147.276C119.04 147.276 117.199 146.751 115.724 145.778C114.248 144.804 113.032 143.311 112.116 141.196L109.363 142.388ZM121.324 150.276C123.705 150.276 125.74 149.928 127.226 149.036C128.833 148.072 129.664 146.548 129.664 144.672H126.664C126.664 145.532 126.355 146.06 125.682 146.464C124.888 146.94 123.503 147.276 121.324 147.276V150.276ZM129.664 144.672C129.664 142.549 128.54 140.935 126.653 139.901L125.211 142.531C126.3 143.129 126.664 143.819 126.664 144.672H129.664ZM126.704 139.93C125.067 138.948 122.146 137.919 118.12 136.817L117.328 139.711C121.366 140.816 123.917 141.756 125.16 142.502L126.704 139.93ZM118.119 136.817C116.065 136.257 114.296 135.634 112.801 134.954L111.559 137.686C113.232 138.446 115.159 139.119 117.329 139.711L118.119 136.817ZM112.801 134.954C111.325 134.284 109.858 133.405 108.4 132.312L106.6 134.712C108.214 135.923 109.867 136.916 111.559 137.686L112.801 134.954ZM108.442 132.344C107.138 131.293 106.128 129.992 105.407 128.422L102.681 129.674C103.591 131.656 104.886 133.331 106.558 134.68L108.442 132.344ZM105.421 128.453C104.748 126.897 104.392 125.066 104.392 122.928H101.392C101.392 125.398 101.804 127.647 102.667 129.643L105.421 128.453ZM104.392 122.928C104.392 118.677 105.88 115.391 108.825 112.916L106.895 110.62C103.215 113.713 101.392 117.867 101.392 122.928H104.392ZM108.817 112.923C111.892 110.375 115.532 109.092 119.812 109.092V106.092C114.876 106.092 110.548 107.593 106.903 110.613L108.817 112.923ZM119.812 109.092C123.691 109.092 127.059 110.013 129.964 111.818L131.547 109.27C128.117 107.139 124.189 106.092 119.812 106.092V109.092ZM129.978 111.827C132.875 113.582 135.187 116.162 136.899 119.632L139.589 118.304C137.653 114.382 134.973 111.346 131.533 109.261L129.978 111.827ZM137.486 117.673L127.766 123.361L129.282 125.951L139.001 120.263L137.486 117.673ZM129.879 124.012C128.888 121.927 127.614 120.26 126.012 119.115L124.268 121.557C125.353 122.332 126.336 123.545 127.169 125.3L129.879 124.012ZM126.04 119.136C124.365 117.88 122.243 117.324 119.812 117.324V120.324C121.797 120.324 123.227 120.776 124.24 121.536L126.04 119.136ZM119.812 117.324C117.879 117.324 116.158 117.752 114.843 118.805L116.717 121.147C117.322 120.664 118.289 120.324 119.812 120.324V117.324ZM114.85 118.799C113.619 119.771 112.912 121.075 112.912 122.64H115.912C115.912 122.093 116.116 121.621 116.709 121.153L114.85 118.799ZM112.912 122.64C112.912 124.43 113.769 125.916 115.209 127.056L117.071 124.704C116.207 124.02 115.912 123.346 115.912 122.64H112.912ZM115.232 127.074C116.676 128.172 119.374 129.242 123.055 130.341L123.913 127.467C120.202 126.358 118.004 125.412 117.048 124.686L115.232 127.074ZM123.04 130.337C125.051 130.959 126.591 131.457 127.671 131.833L128.657 128.999C127.528 128.607 125.949 128.097 123.927 127.471L123.04 130.337ZM127.671 131.833C128.666 132.179 129.977 132.784 131.624 133.678L133.056 131.042C131.343 130.112 129.87 129.421 128.657 128.999L127.671 131.833ZM131.669 133.702C133.293 134.514 134.4 135.341 135.089 136.144L137.367 134.192C136.328 132.979 134.843 131.934 133.011 131.018L131.669 133.702ZM135.14 136.201C135.89 136.99 136.593 138.113 137.217 139.627L139.991 138.485C139.271 136.735 138.39 135.266 137.315 134.135L135.14 136.201ZM137.238 139.677C137.855 141.033 138.184 142.639 138.184 144.528H141.184C141.184 142.289 140.793 140.247 139.969 138.435L137.238 139.677ZM138.184 144.528C138.184 148.917 136.63 152.262 133.559 154.736L135.441 157.072C139.282 153.978 141.184 149.739 141.184 144.528H138.184ZM133.569 154.728C130.441 157.204 126.285 158.508 120.964 158.508V161.508C126.779 161.508 131.647 160.076 135.431 157.08L133.569 154.728ZM145.09 108.6V107.1H143.59V108.6H145.09ZM156.61 108.6H158.11V107.1H156.61V108.6ZM156.61 159V160.5H158.11V159H156.61ZM145.09 159H143.59V160.5H145.09V159ZM145.09 110.1H156.61V107.1H145.09V110.1ZM155.11 108.6V159H158.11V108.6H155.11ZM156.61 157.5H145.09V160.5H156.61V157.5ZM146.59 159V108.6H143.59V159H146.59ZM193.349 108.6V107.1H191.849V108.6H193.349ZM204.869 108.6H206.369V107.1H204.869V108.6ZM204.869 159V160.5H206.369V159H204.869ZM196.229 159L195.006 159.869L195.455 160.5H196.229V159ZM176.789 131.64L178.012 130.771L175.289 126.939V131.64H176.789ZM176.789 159V160.5H178.289V159H176.789ZM165.269 159H163.769V160.5H165.269V159ZM165.269 108.6V107.1H163.769V108.6H165.269ZM173.909 108.6L175.132 107.731L174.684 107.1H173.909V108.6ZM193.349 135.96L192.126 136.829L194.849 140.661V135.96H193.349ZM193.349 110.1H204.869V107.1H193.349V110.1ZM203.369 108.6V159H206.369V108.6H203.369ZM204.869 157.5H196.229V160.5H204.869V157.5ZM197.452 158.131L178.012 130.771L175.566 132.509L195.006 159.869L197.452 158.131ZM175.289 131.64V159H178.289V131.64H175.289ZM176.789 157.5H165.269V160.5H176.789V157.5ZM166.769 159V108.6H163.769V159H166.769ZM165.269 110.1H173.909V107.1H165.269V110.1ZM172.686 109.469L192.126 136.829L194.572 135.091L175.132 107.731L172.686 109.469ZM194.849 135.96V108.6H191.849V135.96H194.849ZM256.128 152.448L255.072 151.382L256.128 152.448ZM218.976 152.448L220.031 151.382L218.976 152.448ZM227.04 144.6L225.979 145.661L225.988 145.67L227.04 144.6ZM247.992 144.6L246.94 143.53L246.931 143.539L247.992 144.6ZM247.992 123L246.931 124.061L246.94 124.07L247.992 123ZM227.04 123L225.988 121.93L225.979 121.939L227.04 123ZM255.072 151.382C250.271 156.138 244.461 158.508 237.552 158.508V161.508C245.235 161.508 251.808 158.838 257.183 153.514L255.072 151.382ZM237.552 158.508C230.643 158.508 224.832 156.138 220.031 151.382L217.92 153.514C223.295 158.838 229.869 161.508 237.552 161.508V158.508ZM220.031 151.382C215.238 146.634 212.844 140.806 212.844 133.8H209.844C209.844 141.578 212.538 148.182 217.92 153.514L220.031 151.382ZM212.844 133.8C212.844 126.794 215.238 120.966 220.031 116.218L217.92 114.086C212.538 119.418 209.844 126.022 209.844 133.8H212.844ZM220.031 116.218C224.832 111.462 230.643 109.092 237.552 109.092V106.092C229.869 106.092 223.295 108.762 217.92 114.086L220.031 116.218ZM237.552 109.092C244.461 109.092 250.271 111.462 255.072 116.218L257.183 114.086C251.808 108.762 245.235 106.092 237.552 106.092V109.092ZM255.072 116.218C259.866 120.966 262.26 126.794 262.26 133.8H265.26C265.26 126.022 262.566 119.418 257.183 114.086L255.072 116.218ZM262.26 133.8C262.26 140.806 259.866 146.634 255.072 151.382L257.183 153.514C262.566 148.182 265.26 141.578 265.26 133.8H262.26ZM225.988 145.67C229.116 148.745 233.005 150.276 237.552 150.276V147.276C233.746 147.276 230.627 146.023 228.091 143.53L225.988 145.67ZM237.552 150.276C242.099 150.276 245.969 148.744 249.052 145.661L246.931 143.539C244.447 146.024 241.357 147.276 237.552 147.276V150.276ZM249.043 145.67C252.195 142.571 253.74 138.569 253.74 133.8H250.74C250.74 137.863 249.452 141.061 246.94 143.53L249.043 145.67ZM253.74 133.8C253.74 129.031 252.195 125.029 249.043 121.93L246.94 124.07C249.452 126.539 250.74 129.737 250.74 133.8H253.74ZM249.052 121.939C245.969 118.856 242.099 117.324 237.552 117.324V120.324C241.357 120.324 244.447 121.576 246.931 124.061L249.052 121.939ZM237.552 117.324C233.005 117.324 229.116 118.855 225.988 121.93L228.091 124.07C230.627 121.577 233.746 120.324 237.552 120.324V117.324ZM225.979 121.939C222.878 125.04 221.364 129.039 221.364 133.8H224.364C224.364 129.729 225.633 126.528 228.1 124.061L225.979 121.939ZM221.364 133.8C221.364 138.561 222.878 142.56 225.979 145.661L228.1 143.539C225.633 141.072 224.364 137.871 224.364 133.8H221.364Z" fill="white"/>
<defs>
<filter id="filter0_d_244_395" x="97.2344" y="0.599976" width="107.52" height="326.4" filterUnits="userSpaceOnUse" color-interpolation-filters="sRGB">
<feFlood flood-opacity="0" result="BackgroundImageFix"/>
<feColorMatrix in="SourceAlpha" type="matrix" values="0 0 0 0 0 0 0 0 0 0 0 0 0 0 0 0 0 0 127 0" result="hardAlpha"/>
<feOffset dy="4"/>
<feGaussianBlur stdDeviation="15"/>
<feComposite in2="hardAlpha" operator="out"/>
<feColorMatrix type="matrix" values="0 0 0 0 0.568627 0 0 0 0 0.0745098 0 0 0 0 0.733333 0 0 0 1 0"/>
<feBlend mode="normal" in2="BackgroundImageFix" result="effect1_dropShadow_244_395"/>
<feBlend mode="normal" in="SourceGraphic" in2="effect1_dropShadow_244_395" result="shape"/>
</filter>
</defs>
</svg>
