<svg width="100" height="100" viewBox="0 0 100 100" fill="none" xmlns="http://www.w3.org/2000/svg">
<rect width="100" height="100" rx="15" fill="#251730"/>
<path fill-rule="evenodd" clip-rule="evenodd" d="M24.8756 31.1577C27.1552 33.4444 29.1115 35.4982 29.223 35.7217C29.3993 36.075 29.4257 36.8446 29.4257 41.625V47.1221L30.012 48.16C31.3166 50.4699 33.6699 53.18 35.8366 54.8676C45.4905 62.3872 58.7855 61.5491 67.3559 52.8808C68.7182 51.5028 70.1543 49.6359 70.9899 48.1565L71.5742 47.1221V41.625C71.5742 36.8446 71.6006 36.075 71.7769 35.7217C71.8884 35.4982 73.8447 33.4444 76.1243 31.1577L80.2691 27H50.4999H20.7308L24.8756 31.1577ZM59.0091 34.8727C59.5724 35.1602 60.0214 35.8915 60.0214 36.5215C60.0214 37.1514 59.5724 37.8828 59.0091 38.1702C58.5226 38.4183 58.2754 38.4258 50.4999 38.4258C42.7244 38.4258 42.4773 38.4183 41.9908 38.1702C40.6966 37.5099 40.6696 35.6892 41.9424 34.9187L42.4384 34.6185L50.4733 34.6178C58.2762 34.6172 58.5226 34.6246 59.0091 34.8727ZM36.1575 37.4118C36.7208 37.6992 37.1699 38.4306 37.1699 39.0605C37.1699 40.0308 36.2313 40.9648 35.2562 40.9648C34.3223 40.9648 33.3613 39.999 33.3613 39.0605C33.3613 38.45 33.8106 37.701 34.3466 37.418C34.9591 37.0947 35.532 37.0928 36.1575 37.4118ZM66.6263 37.4118C67.1896 37.6992 67.6386 38.4306 67.6386 39.0605C67.6386 40.0308 66.7001 40.9648 65.7249 40.9648C64.7911 40.9648 63.83 39.999 63.83 39.0605C63.83 38.45 64.2793 37.701 64.8153 37.418C65.4279 37.0947 66.0008 37.0928 66.6263 37.4118ZM38.1371 44.9795C39.0594 45.4172 39.4644 46.6696 38.9735 47.5664C38.6812 48.1006 37.901 48.5771 37.3141 48.58C36.6692 48.583 35.942 48.1134 35.6464 47.5029C35.3274 46.8439 35.3271 46.5121 35.6454 45.8547C36.1 44.9156 37.1932 44.5316 38.1371 44.9795ZM64.6062 45.0507C65.126 45.3428 65.6074 46.1252 65.6074 46.6777C65.6074 47.2438 65.1261 48.0125 64.5793 48.3199C63.254 49.0647 61.6599 47.998 61.8309 46.481C61.987 45.0956 63.3951 44.3701 64.6062 45.0507ZM43.7231 50.5654C45.1118 51.2244 45.1028 53.2388 43.708 53.9141C43.4195 54.0537 43.0482 54.168 42.8828 54.168C42.3167 54.168 41.548 53.6867 41.2406 53.1399C40.3417 51.5404 42.048 49.7707 43.7231 50.5654ZM58.9574 50.5654C60.3462 51.2244 60.3372 53.2388 58.9423 53.9141C58.6539 54.0537 58.2826 54.168 58.1171 54.168C57.551 54.168 56.7823 53.6867 56.475 53.1399C55.576 51.5404 57.2824 49.7707 58.9574 50.5654ZM51.3919 52.6462C51.9552 52.9336 52.4042 53.665 52.4042 54.2949C52.4042 55.2652 51.4657 56.1992 50.4906 56.1992C49.9001 56.1992 49.1158 55.7055 48.8365 55.1579C48.3676 54.2389 48.6619 53.2356 49.5596 52.6921C50.1675 52.3242 50.7329 52.31 51.3919 52.6462Z" fill="url(#paint0_linear_112_1160)"/>
<g filter="url(#filter0_i_112_1160)">
<path fill-rule="evenodd" clip-rule="evenodd" d="M18.0011 41.6964L18.0023 51.6614L18.6795 53.1214C20.4348 56.9062 22.7122 60.1448 25.7342 63.1536C27.6088 65.02 28.9008 66.0789 31.0762 67.532C35.5044 70.49 40.5483 72.393 45.9297 73.1363C47.9016 73.4088 52.6216 73.4461 54.5625 73.2046C60.0795 72.5183 65.3399 70.586 69.822 67.5993C72.1135 66.0723 73.3791 65.0392 75.2646 63.1568C78.3004 60.126 80.5669 56.9024 82.3205 53.1214L82.9977 51.6614L82.9989 41.6964L83 31.7314L79.1914 35.5384L75.3828 39.3453V44.6686V49.9919L74.8558 51.017C73.5821 53.4954 72.0644 55.555 69.9274 57.705C65.4544 62.2054 59.9256 64.8851 53.5826 65.627C42.3365 66.9427 31.3999 61.0921 26.0754 50.9123L25.6172 50.0363V44.6908V39.3453L21.8086 35.5384L18 31.7314L18.0011 41.6964Z" fill="url(#paint1_linear_112_1160)"/>
</g>
<defs>
<filter id="filter0_i_112_1160" x="16" y="31.7314" width="67" height="43.6338" filterUnits="userSpaceOnUse" color-interpolation-filters="sRGB">
<feFlood flood-opacity="0" result="BackgroundImageFix"/>
<feBlend mode="normal" in="SourceGraphic" in2="BackgroundImageFix" result="shape"/>
<feColorMatrix in="SourceAlpha" type="matrix" values="0 0 0 0 0 0 0 0 0 0 0 0 0 0 0 0 0 0 127 0" result="hardAlpha"/>
<feOffset dx="-2" dy="2"/>
<feGaussianBlur stdDeviation="2"/>
<feComposite in2="hardAlpha" operator="arithmetic" k2="-1" k3="1"/>
<feColorMatrix type="matrix" values="0 0 0 0 0.30218 0 0 0 0 0.0359028 0 0 0 0 0.391667 0 0 0 0.35 0"/>
<feBlend mode="normal" in2="shape" result="effect1_innerShadow_112_1160"/>
</filter>
<linearGradient id="paint0_linear_112_1160" x1="80.2388" y1="24.7655" x2="30.7937" y2="75.7858" gradientUnits="userSpaceOnUse">
<stop stop-color="#FFD03D"/>
<stop offset="1" stop-color="#B98F0C"/>
</linearGradient>
<linearGradient id="paint1_linear_112_1160" x1="23.194" y1="73.3652" x2="84.7054" y2="36.7649" gradientUnits="userSpaceOnUse">
<stop stop-color="#7B199B"/>
<stop offset="1" stop-color="#A90BDE"/>
</linearGradient>
</defs>
</svg>
