<svg width="100" height="100" viewBox="0 0 100 100" fill="none" xmlns="http://www.w3.org/2000/svg">
<rect width="100" height="100" rx="15" fill="#251730"/>
<path fill-rule="evenodd" clip-rule="evenodd" d="M47.4901 17.0855C41.1464 17.7412 35.4683 20.0101 30.3954 23.9169C28.8151 25.1338 25.7837 28.2318 24.526 29.9152C21.2098 34.3533 19.1486 39.2533 18.2974 44.7221C17.9009 47.2703 17.9009 51.7062 18.2974 54.2544C19.3908 61.2797 22.4735 67.3718 27.4666 72.3752C30.1432 75.0574 32.4149 76.7387 35.5412 78.3511C46.1226 83.8087 58.5474 83.1338 68.4272 76.5649C73.2969 73.3271 77.1046 68.9905 79.6473 63.7867C81.1281 60.7558 82.0344 57.9625 82.5544 54.8264C84.0511 45.7972 81.7515 36.8126 76.0483 29.4068C74.8136 27.8036 71.7319 24.7927 70.0499 23.5462C67.9863 22.0171 66.9533 21.3844 64.7753 20.3161C61.581 18.7491 58.681 17.8351 55.2686 17.3199C53.3237 17.0263 49.251 16.9035 47.4901 17.0855ZM53.0188 21.6857V24.3865H50.604H48.1892L48.1891 21.6857V18.9848H50.604H53.0188V21.6857ZM61.8185 21.032C62.8855 21.4589 63.8849 21.857 64.0392 21.9165C64.3154 22.0231 64.3036 22.0648 63.2969 24.5401C62.7344 25.9236 62.2516 27.0785 62.224 27.1065C62.1964 27.1346 61.6153 26.8996 60.9327 26.5845C60.2499 26.2693 59.2911 25.8818 58.8018 25.7234C58.3124 25.5649 57.8607 25.3881 57.7979 25.3306C57.6776 25.2201 59.6203 20.2605 59.785 20.2575C59.8365 20.2566 60.7516 20.6051 61.8185 21.032ZM42.2894 22.7281C42.8083 23.9831 43.247 25.0883 43.2645 25.1841C43.2853 25.3001 42.8908 25.4974 42.0884 25.7727C41.4243 26.0006 40.4274 26.3978 39.873 26.6554C39.3185 26.9131 38.8214 27.0798 38.7683 27.0262C38.661 26.9178 36.7497 22.3347 36.7513 22.19C36.7527 22.0686 40.9604 20.3857 41.177 20.4199C41.2699 20.4345 41.7704 21.4731 42.2894 22.7281ZM32.6849 28.0742L34.5261 29.9192L33.8906 30.4445C33.5411 30.7332 32.7342 31.499 32.0973 32.1459L30.9394 33.3221L29.053 31.4325C28.0155 30.3932 27.1925 29.5266 27.2241 29.5066C27.2558 29.4867 28.0338 28.7412 28.9534 27.8499C29.8729 26.9586 30.6744 26.2294 30.7344 26.2294C30.7944 26.2294 31.6721 27.0596 32.6849 28.0742ZM72.3075 27.9151L73.9898 29.6008L72.043 31.5444L70.0964 33.4879L69.1517 32.494C68.6321 31.9475 67.8378 31.1703 67.3864 30.7672L66.566 30.0342L68.4652 28.1318C69.5099 27.0855 70.4232 26.2294 70.4949 26.2294C70.5667 26.2294 71.3824 26.9879 72.3075 27.9151ZM54.4461 26.8569C62.6074 28.264 69.5954 34.2641 72.222 42.12C74.9495 50.2778 73.04 59.0054 67.1602 65.2556C61.7382 71.0192 53.5737 73.5975 45.8363 71.9895C42.9266 71.3848 39.5451 69.9138 37.1316 68.203C35.5757 67.0999 32.8595 64.3824 31.7648 62.8335C25.4102 53.842 26.2538 41.7356 33.7935 33.7209C37.4907 29.7908 42.6327 27.2413 48.1256 26.6149C49.6356 26.4427 52.7311 26.5611 54.4461 26.8569ZM47.4174 29.3392C42.844 30.0854 39.1091 31.9846 35.9241 35.1832C34.079 37.0361 33.0476 38.4655 31.9756 40.655C30.681 43.2991 30.1504 45.2112 29.8722 48.2356C29.469 52.6157 30.7164 57.3663 33.2879 61.2448C36.3184 65.8156 40.9198 68.8897 46.5368 70.0961C47.6763 70.3409 48.2523 70.3827 50.4769 70.3827C52.7015 70.3827 53.2775 70.3409 54.4169 70.0961C61.0138 68.6792 66.2414 64.6221 69.0975 58.7028C70.6938 55.3949 71.3984 51.6774 71.0815 48.2356C70.7974 45.147 70.2668 43.267 68.9064 40.5279C66.1197 34.9166 61.1055 31.0123 54.8617 29.5916C53.5505 29.2933 52.9978 29.2388 50.9217 29.2031C49.2712 29.1746 48.162 29.2177 47.4174 29.3392ZM51.7478 33.7388C52.5165 34.0873 52.8679 34.4325 53.2251 35.1898C53.8646 36.5462 53.4201 38.0364 52.1188 38.8975L51.6207 39.2272V42.4411V45.6551L51.9902 45.7363C52.8395 45.9228 54.2565 47.3066 54.4703 48.1583L54.5488 48.4715H57.727H60.9052L61.0166 48.1784C61.3497 47.3022 62.6363 46.4416 63.6167 46.4392C65.2859 46.435 66.6221 47.7407 66.6155 49.3695C66.6062 51.6546 64.1917 53.0406 62.205 51.9013C61.7776 51.6562 61.4383 51.3402 61.2518 51.0138L60.9624 50.5069L57.7749 50.5061L54.5875 50.505L54.2874 51.1457C53.9119 51.9472 53.0062 52.8066 52.2209 53.1065L51.6207 53.3358V56.5456V59.7556L51.9462 59.8373C52.1252 59.8822 52.5123 60.1601 52.8067 60.4547C53.7135 61.363 53.9091 62.6535 53.3194 63.8369C52.2489 65.9851 49.2133 65.9851 48.1427 63.8369C47.4732 62.4934 47.8613 60.9635 49.0967 60.076L49.7143 59.6322V56.4817V53.331L49.0266 52.9946C48.2307 52.6052 47.5033 51.8548 47.1521 51.0607L46.9062 50.505H43.6163C40.403 50.505 40.3242 50.5111 40.2428 50.7676C40.1082 51.1917 39.4205 51.8971 38.8595 52.1864C38.1484 52.553 37.0018 52.5516 36.2873 52.1832C33.808 50.9051 34.1967 47.3915 36.8967 46.6757C38.0659 46.3657 39.5706 47.0309 40.125 48.1029L40.3155 48.4715L43.5851 48.471L46.8546 48.4706L47.1019 47.8692C47.4327 47.0649 48.1609 46.2999 48.945 45.9327L49.5872 45.6319L49.5831 42.4444L49.5792 39.2569L49.0198 38.9175C48.1937 38.4165 47.7661 37.695 47.7024 36.6946C47.6371 35.6687 47.8889 34.9656 48.5544 34.3157C49.416 33.4743 50.6662 33.2485 51.7478 33.7388ZM25.7199 36.4112C26.9284 36.9083 27.9642 37.3586 28.0218 37.4119C28.0792 37.4653 27.8726 38.0166 27.5622 38.6372C27.2519 39.2577 26.8112 40.2597 26.5829 40.8638L26.1678 41.9624L24.5641 41.2954C22.2912 40.3502 21.5694 40.0439 21.5122 40.0002C21.4348 39.9409 23.3288 35.5075 23.4316 35.5075C23.4817 35.5075 24.5115 35.9142 25.7199 36.4112ZM78.0949 35.9206C79.3361 38.9512 79.8433 40.2457 79.8042 40.2846C79.6831 40.4057 75.0727 42.2445 74.9731 42.2113C74.9114 42.1907 74.6129 41.5405 74.3098 40.7663C74.0067 39.9922 73.58 39.0046 73.3615 38.572L72.9644 37.7851L73.3182 37.658C73.5129 37.5881 74.6159 37.1387 75.7693 36.6593C76.9227 36.1797 77.9031 35.7817 77.9481 35.7747C77.9931 35.7676 78.0591 35.8333 78.0949 35.9206ZM81.2055 49.4565L81.2399 51.9031H78.6H75.9599L75.9476 49.4222L75.9353 46.9412L78.5531 46.9755L81.1709 47.0098L81.2055 49.4565ZM25.0029 49.5518L24.9938 52.0302H22.5472H20.1005V49.5518V47.0734H22.5563H25.0121L25.0029 49.5518ZM26.331 58.0991C26.5584 58.7807 26.9627 59.8125 27.2296 60.3922L27.715 61.4461L27.3984 61.5665C27.2244 61.6326 26.223 62.0389 25.1731 62.4694C24.0873 62.9146 23.2205 63.2028 23.1627 63.138C23.0117 62.9689 21.3511 58.7445 21.4117 58.6839C21.4699 58.6257 25.7106 56.8884 25.837 56.871C25.8813 56.8649 26.1036 57.4175 26.331 58.0991ZM77.4659 57.9917C78.6437 58.488 79.6541 58.923 79.7112 58.9582C79.7976 59.0117 78.0582 63.256 77.8747 63.4395C77.8069 63.5072 73.4777 61.7241 73.3021 61.5559C73.2331 61.4899 73.3947 60.9925 73.7011 60.3281C73.9846 59.7138 74.3673 58.7823 74.5517 58.258C74.7361 57.7337 74.9144 57.2273 74.948 57.1327C74.9814 57.0381 75.0799 56.9897 75.1666 57.025C75.2534 57.0605 76.2881 57.4955 77.4659 57.9917ZM72.3077 71.0614C71.3824 71.9886 70.5665 72.7471 70.4947 72.7471C70.4229 72.7471 69.5983 71.9797 68.6624 71.0418L66.9605 69.3366L68.422 67.8899C69.2258 67.0943 69.9875 66.2846 70.1146 66.0906L70.3456 65.7379L72.1677 67.5568L73.9899 69.3757L72.3077 71.0614ZM32.3934 67.7959L34.0738 69.5173L32.4267 71.1607L30.7797 72.804L30.111 72.1731C29.7432 71.826 28.9416 71.0565 28.3296 70.4628L27.2171 69.3833L28.9003 67.6968C29.826 66.7691 30.6127 66.0245 30.6484 66.0423C30.684 66.06 31.4693 66.8491 32.3934 67.7959ZM63.4849 74.1452C63.8709 75.0889 64.2745 76.0693 64.3816 76.3239L64.5766 76.7866L62.3882 77.6912C61.1846 78.1887 60.1388 78.5952 60.0641 78.5946C59.8776 78.5932 58.1707 74.2769 58.3092 74.1571C58.3704 74.1043 59.0496 73.8152 59.8185 73.5149C60.5875 73.2146 61.5312 72.8094 61.9156 72.6147C62.3001 72.42 62.6526 72.2986 62.6989 72.345C62.7452 72.3914 63.0989 73.2015 63.4849 74.1452ZM39.6816 72.9538C40.4653 73.3323 42.3575 74.0641 42.8828 74.1921C43.075 74.2388 43.2323 74.3407 43.2323 74.4184C43.2323 74.6425 41.5568 78.7207 41.4646 78.7207C41.3191 78.7207 37.1994 77.0511 37.0927 76.949C36.9533 76.8154 38.6434 72.62 38.8368 72.62C38.9213 72.62 39.3014 72.7702 39.6816 72.9538ZM53.0189 77.6086L53.0188 79.9917H50.604H48.1891L48.1894 77.6086L48.1896 75.2255H50.6042H53.0189V77.6086Z" fill="url(#paint0_linear_112_1142)"/>
<path fill-rule="evenodd" clip-rule="evenodd" d="M47.4173 29.3389C42.8439 30.0851 39.109 31.9843 35.9239 35.1828C34.0789 37.0358 33.0475 38.4651 31.9755 40.6546C30.6809 43.2988 30.1503 45.2108 29.8721 48.2352C29.4689 52.6154 30.7163 57.3659 33.2878 61.2444C36.3183 65.8152 40.9196 68.8893 46.5367 70.0958C47.6762 70.3405 48.2522 70.3824 50.4767 70.3824C52.7013 70.3824 53.2773 70.3405 54.4168 70.0958C61.0136 68.6789 66.2413 64.6218 69.0974 58.7025C70.6937 55.3945 71.3983 51.677 71.0814 48.2352C70.7972 45.1466 70.2667 43.2666 68.9063 40.5275C66.1195 34.9163 61.1054 31.012 54.8616 29.5913C53.5504 29.293 52.9977 29.2385 50.9216 29.2027C49.2711 29.1743 48.1619 29.2174 47.4173 29.3389ZM51.7477 33.7385C52.5164 34.087 52.8678 34.4322 53.225 35.1894C53.8645 36.5458 53.42 38.036 52.1187 38.8971L51.6206 39.2268V42.4407V45.6548L51.9901 45.736C52.8394 45.9224 54.2564 47.3063 54.4702 48.158L54.5487 48.4711H57.7269H60.9051L61.0164 48.178C61.3496 47.3018 62.6362 46.4412 63.6166 46.4388C65.2858 46.4346 66.622 47.7403 66.6153 49.3692C66.6061 51.6543 64.1916 53.0403 62.2049 51.901C61.7775 51.6558 61.4382 51.3398 61.2517 51.0135L60.9623 50.5066L57.7748 50.5057L54.5873 50.5047L54.2873 51.1454C53.9118 51.9469 53.0061 52.8063 52.2208 53.1061L51.6206 53.3354V56.5452V59.7552L51.9461 59.8369C52.1251 59.8818 52.5122 60.1598 52.8066 60.4544C53.7134 61.3626 53.909 62.6532 53.3193 63.8366C52.2487 65.9848 49.2131 65.9848 48.1426 63.8366C47.473 62.493 47.8612 60.9632 49.0966 60.0756L49.7142 59.6318V56.4813V53.3307L49.0264 52.9943C48.2306 52.6048 47.5032 51.8545 47.152 51.0604L46.9061 50.5047H43.6161C40.4029 50.5047 40.3241 50.5108 40.2427 50.7673C40.1081 51.1914 39.4204 51.8968 38.8594 52.1861C38.1483 52.5526 37.0017 52.5512 36.2872 52.1829C33.8079 50.9048 34.1966 47.3912 36.8966 46.6754C38.0658 46.3654 39.5705 47.0306 40.1249 48.1025L40.3154 48.4711L43.585 48.4706L46.8545 48.4702L47.1018 47.8688C47.4326 47.0645 48.1608 46.2995 48.9448 45.9323L49.5871 45.6315L49.583 42.444L49.5791 39.2565L49.0197 38.9172C48.1936 38.4162 47.766 37.6946 47.7023 36.6943C47.637 35.6683 47.8888 34.9652 48.5543 34.3154C49.4159 33.474 50.6661 33.2481 51.7477 33.7385Z" fill="url(#paint1_linear_112_1142)"/>
<defs>
<linearGradient id="paint0_linear_112_1142" x1="23.194" y1="82.015" x2="95.9239" y2="54.3027" gradientUnits="userSpaceOnUse">
<stop stop-color="#7B199B"/>
<stop offset="1" stop-color="#A90BDE"/>
</linearGradient>
<linearGradient id="paint1_linear_112_1142" x1="71.1346" y1="26.4046" x2="17.7982" y2="57.0263" gradientUnits="userSpaceOnUse">
<stop stop-color="#FFD03D"/>
<stop offset="1" stop-color="#B98F0C"/>
</linearGradient>
</defs>
</svg>
