<svg width="40" height="40" viewBox="0 0 40 40" fill="none" xmlns="http://www.w3.org/2000/svg">
<path fill-rule="evenodd" clip-rule="evenodd" d="M0 5.2071C0 1.89349 1.53846 0 5.2071 0H34.7929C38.4615 0 40 1.89349 40 5.2071V35.1479C40 37.7515 38.4615 40 35.1479 40H5.2071C2.36686 40 0 38.5799 0 34.7929V5.2071ZM10.4 14.4C12.6091 14.4 14.4 12.6091 14.4 10.4C14.4 8.19086 12.6091 6.4 10.4 6.4C8.19086 6.4 6.4 8.19086 6.4 10.4C6.4 12.6091 8.19086 14.4 10.4 14.4ZM33.6 29.6C33.6 31.8091 31.8091 33.6 29.6 33.6C27.3909 33.6 25.6 31.8091 25.6 29.6C25.6 27.3909 27.3909 25.6 29.6 25.6C31.8091 25.6 33.6 27.3909 33.6 29.6ZM29.6 14.4C31.8091 14.4 33.6 12.6091 33.6 10.4C33.6 8.19086 31.8091 6.4 29.6 6.4C27.3909 6.4 25.6 8.19086 25.6 10.4C25.6 12.6091 27.3909 14.4 29.6 14.4ZM14.4 29.6C14.4 31.8091 12.6091 33.6 10.4 33.6C8.19086 33.6 6.4 31.8091 6.4 29.6C6.4 27.3909 8.19086 25.6 10.4 25.6C12.6091 25.6 14.4 27.3909 14.4 29.6ZM20 24C22.2091 24 24 22.2091 24 20C24 17.7909 22.2091 16 20 16C17.7909 16 16 17.7909 16 20C16 22.2091 17.7909 24 20 24Z" fill="url(#paint0_linear_112_1201)"/>
<defs>
<linearGradient id="paint0_linear_112_1201" x1="3.19631" y1="40" x2="47.9505" y2="22.9433" gradientUnits="userSpaceOnUse">
<stop stop-color="#7B199B"/>
<stop offset="1" stop-color="#A90BDE"/>
</linearGradient>
</defs>
</svg>
