<svg width="122" height="50" viewBox="0 0 122 50" fill="none" xmlns="http://www.w3.org/2000/svg">
<path d="M26.393 18.9118C27.3553 21.4551 27.2568 23.7319 26.0646 25.7521C24.9698 27.6472 23.1645 28.9633 20.6487 29.7003C19.5156 30.0293 18.1657 30.3583 16.6352 30.6873L14.6055 31.0953L12.579 31.4967H12.5593L6.41435 32.7305L0 7.59367L8.38824 5.64258C10.2166 5.26527 12.0691 5.01679 13.9322 4.89901C16.0604 4.75753 17.8077 4.89901 19.1609 5.27738C22.7146 6.25567 23.4513 8.80662 21.3713 12.9303C21.1226 13.4248 20.822 13.8914 20.4746 14.322C23.4262 14.7169 25.3989 16.2468 26.393 18.9118ZM11.1668 15.6085C11.9822 15.4379 12.7226 15.0129 13.2819 14.3944C13.4987 14.1613 13.6635 13.8847 13.7654 13.5829C13.8673 13.2812 13.904 12.9612 13.8731 12.644C13.8354 12.3391 13.7177 12.0496 13.5319 11.8051C13.3461 11.5607 13.0989 11.3699 12.8155 11.2523C12.093 10.9233 11.1536 10.8641 9.96472 11.124L11.1668 15.6085ZM17.1738 25.0052C17.4887 24.729 17.7464 24.3937 17.9325 24.0182C18.1069 23.639 18.1246 23.2062 17.9818 22.814C17.6533 21.9717 16.8487 21.442 15.6236 21.238C15.1003 21.154 14.569 21.1319 14.0406 21.1722C13.607 21.1722 13.144 21.2248 12.6415 21.2873L13.8928 25.9725C13.8928 26.0186 14.1785 26.012 14.7598 25.9265C14.9635 25.8903 15.1704 25.8706 15.374 25.8343C15.5776 25.7981 15.6827 25.7718 15.7287 25.7587C16.1888 25.6594 16.6209 25.4581 16.9932 25.1697L17.1738 25.0052Z" fill="#CB7529"/>
<path d="M29.5199 28.1604L26.564 3.90202L36.2627 3.01367L38.2333 27.2326L29.5199 28.1604Z" fill="#CB7529"/>
<path d="M63.9754 26.6504L41.2016 27.0156V25.0744L49.741 11.8084L40.282 12.6277L40.3772 4.84971L63.3871 0V1.9412L56.1944 17.5004L63.8077 17.0233L63.9754 26.6504Z" fill="#CB7529"/>
<path d="M89.2388 28.3317L66.5764 26.2325V24.2914L76.5838 12.1737L67.1877 11.8447V2.55981L91.3374 1.78662V3.72782L82.4893 18.402L90.1089 18.754L89.2388 28.3317Z" fill="#CB7529"/>
<path d="M103.484 31.2201C101.604 30.9151 99.8057 30.2324 98.1958 29.2132C96.6978 28.2734 95.4081 27.0361 94.4056 25.5775C93.3899 24.0971 92.7046 22.4147 92.3963 20.645C92.088 18.8752 92.1639 17.0597 92.6193 15.3221C93.0762 13.4789 93.913 11.7518 95.0757 10.2519C96.8272 7.95445 99.1679 6.1763 101.849 5.10722C104.53 4.03813 107.45 3.71821 110.299 4.18157C112.18 4.4862 113.979 5.16889 115.59 6.18856C117.097 7.12194 118.393 8.36161 119.393 9.8275C120.386 11.2738 121.058 12.9162 121.364 14.6443C121.694 16.4456 121.626 18.2973 121.167 20.0698C120.705 21.9099 119.874 23.6364 118.723 25.1432C117.578 26.6528 116.17 27.9434 114.568 28.9532C111.292 31.0844 107.332 31.8944 103.484 31.2201ZM101.336 16.8783C101.149 17.5666 101.115 18.2874 101.236 18.9903C101.356 19.6932 101.628 20.3614 102.032 20.9483C102.45 21.5493 102.986 22.0584 103.607 22.4443C104.228 22.8302 104.922 23.0847 105.645 23.1921C107.178 23.463 108.756 23.1395 110.059 22.2873C110.708 21.9047 111.274 21.3967 111.725 20.7929C112.176 20.1891 112.503 19.5016 112.687 18.7702C112.875 18.0797 112.908 17.3556 112.782 16.6509C112.656 15.9462 112.374 15.2786 111.957 14.6969C111.549 14.0872 111.016 13.5716 110.392 13.1847C109.769 12.7978 109.071 12.5484 108.344 12.4531C106.812 12.1852 105.235 12.5085 103.931 13.3579C102.635 14.1416 101.702 15.4074 101.336 16.8783Z" fill="#CB7529"/>
<g opacity="0.6">
<path style="mix-blend-mode:multiply" opacity="0.6" d="M26.393 18.9118C27.3553 21.4551 27.2568 23.7319 26.0646 25.7521C24.9698 27.6472 23.1645 28.9633 20.6487 29.7003C19.5156 30.0293 18.1657 30.3583 16.6352 30.6873L14.6055 31.0953L12.579 31.4967H12.5593L6.41435 32.7305L0 7.59367L8.38824 5.64258C10.2166 5.26527 12.0691 5.01679 13.9322 4.89901C16.0604 4.75753 17.8077 4.89901 19.1609 5.27738C22.7146 6.25567 23.4513 8.80662 21.3713 12.9303C21.1226 13.4248 20.822 13.8914 20.4746 14.322C23.4262 14.7169 25.3989 16.2468 26.393 18.9118ZM11.1668 15.6085C11.9822 15.4379 12.7226 15.0129 13.2819 14.3944C13.4987 14.1613 13.6635 13.8847 13.7654 13.5829C13.8673 13.2812 13.904 12.9612 13.8731 12.644C13.8354 12.3391 13.7177 12.0496 13.5319 11.8051C13.3461 11.5607 13.0989 11.3699 12.8155 11.2523C12.093 10.9233 11.1536 10.8641 9.96472 11.124L11.1668 15.6085ZM17.1738 25.0052C17.4887 24.729 17.7464 24.3937 17.9325 24.0182C18.1069 23.639 18.1246 23.2062 17.9818 22.814C17.6533 21.9717 16.8487 21.442 15.6236 21.238C15.1003 21.154 14.569 21.1319 14.0406 21.1722C13.607 21.1722 13.144 21.2248 12.6415 21.2873L13.8928 25.9725C13.8928 26.0186 14.1785 26.012 14.7598 25.9265C14.9635 25.8903 15.1704 25.8706 15.374 25.8343C15.5776 25.7981 15.6827 25.7718 15.7287 25.7587C16.1888 25.6594 16.6209 25.4581 16.9932 25.1697L17.1738 25.0052Z" fill="url(#paint0_linear_201_8)"/>
<g style="mix-blend-mode:multiply" opacity="0.6">
<path style="mix-blend-mode:multiply" opacity="0.6" d="M29.5199 28.1609L26.564 3.9025L36.2627 3.01416L38.2333 27.2331L29.5199 28.1609Z" fill="url(#paint1_linear_201_8)"/>
<path style="mix-blend-mode:multiply" opacity="0.6" d="M29.5199 28.1609L26.564 3.9025L36.2627 3.01416L38.2333 27.2331L29.5199 28.1609Z" fill="url(#paint2_linear_201_8)"/>
</g>
<g style="mix-blend-mode:multiply" opacity="0.6">
<path style="mix-blend-mode:multiply" opacity="0.6" d="M63.9765 26.6504L41.2027 27.0156V25.0744L49.7421 11.8084L40.2831 12.6277L41.6527 6.07695L40.2141 2.01358L63.3887 0V1.9412L56.1955 17.5004L63.8088 17.0233L63.9765 26.6504Z" fill="url(#paint3_linear_201_8)"/>
<path style="mix-blend-mode:multiply" opacity="0.6" d="M63.9765 26.6504L41.2027 27.0156V25.0744L49.7421 11.8084L40.2831 12.6277L41.6527 6.07695L40.2141 2.01358L63.3887 0V1.9412L56.1955 17.5004L63.8088 17.0233L63.9765 26.6504Z" fill="url(#paint4_linear_201_8)"/>
</g>
<g style="mix-blend-mode:multiply" opacity="0.6">
<path style="mix-blend-mode:multiply" opacity="0.6" d="M89.2388 28.3317L66.5764 26.2325V24.2914L76.5838 12.1737L67.1877 11.8447V2.55981L91.3374 1.78662V3.72782L82.4893 18.402L90.1089 18.754L89.2388 28.3317Z" fill="url(#paint5_linear_201_8)"/>
<path style="mix-blend-mode:multiply" opacity="0.6" d="M89.2388 28.3317L66.5764 26.2325V24.2914L76.5838 12.1737L67.1877 11.8447V2.55981L91.3374 1.78662V3.72782L82.4893 18.402L90.1089 18.754L89.2388 28.3317Z" fill="url(#paint6_linear_201_8)"/>
</g>
<g style="mix-blend-mode:multiply" opacity="0.6">
<path style="mix-blend-mode:multiply" opacity="0.6" d="M103.483 31.2201C101.604 30.9151 99.8054 30.2324 98.1956 29.2132C96.6975 28.2734 95.4078 27.0361 94.4054 25.5775C93.3897 24.0971 92.7044 22.4147 92.3961 20.645C92.0877 18.8752 92.1637 17.0597 92.6191 15.3221C93.076 13.4789 93.9127 11.7518 95.0755 10.2519C96.827 7.95445 99.1677 6.1763 101.849 5.10722C104.53 4.03813 107.45 3.71821 110.299 4.18157C112.18 4.4862 113.979 5.16889 115.59 6.18856C117.097 7.12194 118.393 8.36161 119.393 9.8275C120.385 11.2738 121.058 12.9162 121.363 14.6443C121.693 16.4456 121.626 18.2973 121.166 20.0698C120.705 21.9099 119.874 23.6364 118.723 25.1432C117.578 26.6528 116.17 27.9434 114.568 28.9532C111.292 31.0844 107.331 31.8944 103.483 31.2201ZM101.336 16.8783C101.149 17.5666 101.115 18.2874 101.235 18.9903C101.355 19.6932 101.627 20.3614 102.032 20.9483C102.45 21.5493 102.985 22.0584 103.607 22.4443C104.228 22.8302 104.922 23.0847 105.645 23.1921C107.178 23.463 108.755 23.1395 110.059 22.2873C110.707 21.9047 111.274 21.3967 111.725 20.7929C112.176 20.1891 112.503 19.5016 112.686 18.7702C112.875 18.0797 112.908 17.3556 112.781 16.6509C112.655 15.9462 112.374 15.2786 111.957 14.6969C111.549 14.0872 111.015 13.5716 110.392 13.1847C109.769 12.7978 109.071 12.5484 108.344 12.4531C106.812 12.1852 105.235 12.5085 103.93 13.3579C102.635 14.1416 101.702 15.4074 101.336 16.8783Z" fill="url(#paint7_linear_201_8)"/>
<path style="mix-blend-mode:multiply" opacity="0.6" d="M103.483 31.2201C101.604 30.9151 99.8054 30.2324 98.1956 29.2132C96.6975 28.2734 95.4078 27.0361 94.4054 25.5775C93.3897 24.0971 92.7044 22.4147 92.3961 20.645C92.0877 18.8752 92.1637 17.0597 92.6191 15.3221C93.076 13.4789 93.9127 11.7518 95.0755 10.2519C96.827 7.95445 99.1677 6.1763 101.849 5.10722C104.53 4.03813 107.45 3.71821 110.299 4.18157C112.18 4.4862 113.979 5.16889 115.59 6.18856C117.097 7.12194 118.393 8.36161 119.393 9.8275C120.385 11.2738 121.058 12.9162 121.363 14.6443C121.693 16.4456 121.626 18.2973 121.166 20.0698C120.705 21.9099 119.874 23.6364 118.723 25.1432C117.578 26.6528 116.17 27.9434 114.568 28.9532C111.292 31.0844 107.331 31.8944 103.483 31.2201ZM101.336 16.8783C101.149 17.5666 101.115 18.2874 101.235 18.9903C101.355 19.6932 101.627 20.3614 102.032 20.9483C102.45 21.5493 102.985 22.0584 103.607 22.4443C104.228 22.8302 104.922 23.0847 105.645 23.1921C107.178 23.463 108.755 23.1395 110.059 22.2873C110.707 21.9047 111.274 21.3967 111.725 20.7929C112.176 20.1891 112.503 19.5016 112.686 18.7702C112.875 18.0797 112.908 17.3556 112.781 16.6509C112.655 15.9462 112.374 15.2786 111.957 14.6969C111.549 14.0872 111.015 13.5716 110.392 13.1847C109.769 12.7978 109.071 12.5484 108.344 12.4531C106.812 12.1852 105.235 12.5085 103.93 13.3579C102.635 14.1416 101.702 15.4074 101.336 16.8783Z" fill="url(#paint8_linear_201_8)"/>
</g>
</g>
<path d="M35.8457 47.5496C34.3349 48.7091 32.4372 49.2426 30.5448 49.0402C29.5912 48.9423 28.6655 48.6607 27.8188 48.2109C27.0158 47.7811 26.2996 47.2054 25.7069 46.5131C25.1187 45.8332 24.672 45.0423 24.3932 44.187C24.1082 43.3147 24.014 42.3911 24.1173 41.4792C24.2161 40.5698 24.5036 39.6912 24.9614 38.8997C25.4134 38.1249 26.0125 37.4464 26.7251 36.9026C28.2153 35.7396 30.1053 35.2166 31.98 35.4483C33.608 35.6037 35.1353 36.3078 36.3121 37.4454L34.509 40.2092C34.0093 39.816 33.4074 39.5751 32.7748 39.515C31.9609 39.4069 31.1368 39.6192 30.4758 40.1072C30.1584 40.3212 29.8915 40.6021 29.6937 40.9302C29.496 41.2582 29.3721 41.6257 29.3308 42.0067C29.2896 42.3877 29.3318 42.7732 29.4547 43.1361C29.5776 43.4991 29.7781 43.8308 30.0423 44.108C30.5754 44.6865 31.292 45.0621 32.0703 45.1713C32.8487 45.2805 33.6407 45.1164 34.3119 44.7069L35.8457 47.5496Z" fill="white"/>
<path d="M40.5915 49.711L35.9441 48.1645L42.7723 34.7241L50.5396 47.5558L47.0353 49.8292L45.9154 47.6808L41.383 47.5722L40.5915 49.711ZM44.3389 44.6736L43.2452 42.5843L42.503 44.5946L44.3389 44.6736Z" fill="white"/>
<path d="M57.443 35.7242L56.4053 38.7478C55.3244 38.3761 54.6151 38.4188 54.293 38.8992C53.8597 39.5046 54.2308 40.2152 55.3871 41.0378C55.8974 41.3989 56.4293 41.7285 56.9798 42.0249L57.1769 42.1367L57.3509 42.2288C57.4989 42.3078 57.6102 42.3736 57.6793 42.4131C57.9058 42.5447 58.0734 42.65 58.1754 42.7191C58.8857 43.194 59.3984 43.9124 59.6171 44.7392C59.8225 45.5402 59.745 46.3877 59.397 47.1377C59.0803 47.8992 58.5695 48.564 57.9161 49.0658C57.1176 49.6129 56.1852 49.931 55.2195 49.9869C54.4881 50.0315 53.7543 49.9605 53.045 49.7766C52.2915 49.6011 51.5518 49.3712 50.8317 49.0889L52.5263 46.0882C52.9651 46.4215 53.5028 46.5975 54.0533 46.5883C54.5033 46.5488 54.6842 46.279 54.5886 45.7888C54.5151 45.4569 54.3391 45.1566 54.0862 44.9301C53.7352 44.6273 53.3455 44.3728 52.9268 44.1733L52.5656 43.9891L52.2043 43.8015C51.9121 43.6502 51.6592 43.5153 51.4621 43.3968C50.2273 42.673 49.4685 41.7518 49.1925 40.6528C48.9541 39.7206 49.0714 38.7328 49.5209 37.8825C49.9592 37.0418 50.6621 36.3698 51.5214 35.971C52.7082 35.4057 54.0249 35.1694 55.3342 35.2866C56.0533 35.34 56.7622 35.4871 57.443 35.7242Z" fill="white"/>
<path d="M60.3926 48.9938L60.2515 35.7739L65.0628 35.866L64.7343 49.007L60.3926 48.9938Z" fill="white"/>
<path d="M66.222 49.4411L66.1362 36.9879L73.9333 41.502L73.5691 36.0403L78.7942 35.7573L79.2343 49.293L71.0794 45.5258L71.2304 49.4249L66.222 49.4411Z" fill="white"/>
<path d="M86.148 49.4517C85.198 49.384 84.2711 49.1267 83.422 48.6947C82.6372 48.2903 81.9421 47.7307 81.3794 47.0497C80.8103 46.3564 80.397 45.5486 80.1676 44.6811C79.9382 43.8136 79.8975 42.9068 80.049 42.0223C80.199 41.0843 80.5426 40.1878 81.0573 39.3901C81.8314 38.1724 82.9211 37.1881 84.2098 36.542C85.4985 35.896 86.9382 35.6124 88.375 35.7216C89.324 35.7933 90.2491 36.0562 91.0946 36.4948C91.8839 36.8953 92.5814 37.4554 93.1437 38.1399C93.6976 38.8151 94.103 39.5999 94.3329 40.443C94.5736 41.3284 94.6197 42.2557 94.4672 43.1607C94.3162 44.0973 93.9756 44.9931 93.4657 45.7928C92.9579 46.5911 92.3118 47.292 91.5574 47.8623C90.0182 49.0546 88.0868 49.6223 86.148 49.4517ZM84.4701 42.4039C84.4059 42.7543 84.4196 43.1144 84.5098 43.4589C84.6 43.8035 84.7647 44.1239 84.9922 44.3978C85.225 44.681 85.5137 44.9129 85.8407 45.0788C86.1672 45.2447 86.5245 45.3411 86.8902 45.3618C87.6642 45.4295 88.4353 45.2015 89.0481 44.7235C89.3549 44.5057 89.6152 44.2287 89.8133 43.909C90.0118 43.5892 90.1446 43.2331 90.2044 42.8613C90.2692 42.509 90.254 42.1466 90.1603 41.8009C90.0662 41.4553 89.8961 41.1352 89.6623 40.8641C89.4339 40.5786 89.1471 40.3449 88.8216 40.1787C88.4961 40.0125 88.1387 39.9175 87.774 39.9001C86.999 39.8348 86.2284 40.0625 85.6128 40.5384C85.0015 40.985 84.5907 41.6554 84.4701 42.4039Z" fill="white"/>
<path d="M26.393 16.971C27.3553 19.5143 27.2568 21.7911 26.0646 23.8113C24.9698 25.7064 23.1645 27.0225 20.6487 27.7595C19.5156 28.0884 18.1657 28.4175 16.6352 28.7465L14.6055 29.1545L12.5758 29.5493H12.5561L6.41435 30.7897L0 5.6561L8.38824 3.70175C10.2172 3.32877 12.0695 3.08143 13.9322 2.96146C16.0604 2.81998 17.8077 2.96146 19.1609 3.34312C22.7146 4.31701 23.4513 6.86797 21.3713 10.996C21.1217 11.489 20.8212 11.9544 20.4746 12.3845C23.4262 12.7771 25.3989 14.306 26.393 16.971ZM11.1668 13.671C11.9826 13.4994 12.7231 13.0733 13.2819 12.4536C13.4987 12.2205 13.6635 11.9439 13.7654 11.6421C13.8673 11.3403 13.904 11.0203 13.8731 10.7032C13.8351 10.3984 13.7172 10.1091 13.5315 9.8646C13.3458 9.62014 13.0987 9.42931 12.8155 9.31146C12.093 8.98244 11.1536 8.92651 9.96472 9.18318L11.1668 13.671ZM17.1738 23.0545C17.4885 22.7782 17.7462 22.4429 17.9325 22.0675C18.1069 21.6883 18.1246 21.2555 17.9818 20.8633C17.6533 20.0243 16.8487 19.4913 15.6236 19.2873C15.1002 19.2049 14.5691 19.1828 14.0406 19.2215C13.607 19.2215 13.144 19.2741 12.6415 19.3399C13.4658 22.4754 13.8928 24.0185 13.8928 24.0185C13.8928 24.0185 14.1785 24.058 14.7598 23.9725C14.9635 23.9363 15.1704 23.9166 15.374 23.8803C15.4937 23.8623 15.6121 23.837 15.7287 23.8047C16.1886 23.7065 16.6206 23.5064 16.9932 23.219L17.1738 23.0545Z" fill="#FFCE07"/>
<path d="M29.5593 26.6013L26.5771 1.97444L36.174 1.10254L38.184 25.6966L29.5593 26.6013Z" fill="#FFCE07"/>
<path d="M63.9758 24.7026L41.2023 25.0678L49.7414 9.86393L40.2827 10.6799L39.2612 1.46742L63.3881 0L56.1954 15.5592L63.8087 15.0821L63.9758 24.7026Z" fill="#FFCE07"/>
<path d="M89.2388 26.3937L66.5764 24.2913L76.6824 10.1008L67.1877 9.89019V0.602051L91.3374 1.77006L82.4893 16.4508L90.1089 16.7995L89.2388 26.3937Z" fill="#FFCE07"/>
<path d="M103.484 29.2826C101.607 28.9739 99.8115 28.2915 98.2027 27.2755C96.7051 26.3337 95.4154 25.0954 94.4124 23.6366C93.3953 22.1567 92.709 20.4745 92.3992 18.7048C92.0899 16.935 92.1649 15.1193 92.6193 13.3812C93.0762 11.538 93.9129 9.81092 95.0757 8.31101C96.2139 6.80237 97.6174 5.51457 99.2174 4.51089C102.491 2.3769 106.451 1.56565 110.299 2.24067C112.179 2.54635 113.979 3.22897 115.59 4.24767C117.093 5.18633 118.384 6.42913 119.38 7.89645C120.372 9.34278 121.044 10.9852 121.35 12.7133C121.683 14.5186 121.617 16.3749 121.157 18.1519C120.695 19.991 119.864 21.7164 118.713 23.2221C117.568 24.7228 116.165 26.0065 114.568 27.0124C111.292 29.1432 107.332 29.9541 103.484 29.2826ZM101.336 14.9374C101.149 15.6263 101.115 16.3475 101.236 17.051C101.356 17.7544 101.628 18.4231 102.032 19.0106C102.45 19.6117 102.986 20.1208 103.607 20.5067C104.228 20.8926 104.922 21.1471 105.645 21.2545C107.178 21.5227 108.756 21.1982 110.059 20.3465C110.708 19.9641 111.274 19.4562 111.725 18.8524C112.177 18.2485 112.503 17.5608 112.687 16.8292C112.875 16.1388 112.908 15.4148 112.782 14.7101C112.655 14.0054 112.374 13.3379 111.957 12.756C111.549 12.1463 111.015 11.6307 110.392 11.2438C109.769 10.8569 109.071 10.6074 108.344 10.5122C106.812 10.2476 105.236 10.5706 103.93 11.417C102.635 12.2007 101.702 13.4665 101.336 14.9374Z" fill="#FFCE07"/>
<g style="mix-blend-mode:multiply">
<path style="mix-blend-mode:multiply" d="M26.393 16.971C27.3553 19.5143 27.2568 21.7911 26.0646 23.8113C24.9698 25.7064 23.1645 27.0225 20.6487 27.7595C19.5156 28.0884 18.1657 28.4175 16.6352 28.7465L14.6055 29.1545L12.5758 29.5493H12.5561L6.41435 30.7897L0 5.6561L8.38824 3.70175C10.2172 3.32877 12.0695 3.08143 13.9322 2.96146C16.0604 2.81998 17.8077 2.96146 19.1609 3.34312C22.7146 4.31701 23.4513 6.86797 21.3713 10.996C21.1217 11.489 20.8212 11.9544 20.4746 12.3845C23.4262 12.7771 25.3989 14.306 26.393 16.971ZM11.1668 13.671C11.9826 13.4994 12.7231 13.0733 13.2819 12.4536C13.4987 12.2205 13.6635 11.9439 13.7654 11.6421C13.8673 11.3403 13.904 11.0203 13.8731 10.7032C13.8351 10.3984 13.7172 10.1091 13.5315 9.8646C13.3458 9.62014 13.0987 9.42931 12.8155 9.31146C12.093 8.98244 11.1536 8.92651 9.96472 9.18318L11.1668 13.671ZM17.1738 23.0545C17.4885 22.7782 17.7462 22.4429 17.9325 22.0675C18.1069 21.6883 18.1246 21.2555 17.9818 20.8633C17.6533 20.0243 16.8487 19.4913 15.6236 19.2873C15.1002 19.2049 14.5691 19.1828 14.0406 19.2215C13.607 19.2215 13.144 19.2741 12.6415 19.3399C13.4658 22.4754 13.8928 24.0185 13.8928 24.0185C13.8928 24.0185 14.1785 24.058 14.7598 23.9725C14.9635 23.9363 15.1704 23.9166 15.374 23.8803C15.4937 23.8623 15.6121 23.837 15.7287 23.8047C16.1886 23.7065 16.6206 23.5064 16.9932 23.219L17.1738 23.0545Z" fill="url(#paint9_linear_201_8)"/>
<g style="mix-blend-mode:multiply">
<path style="mix-blend-mode:multiply" d="M29.5596 26.6013L26.5774 1.97444L36.1743 1.10254L38.1843 25.6966L29.5596 26.6013Z" fill="url(#paint10_linear_201_8)"/>
<path style="mix-blend-mode:multiply" d="M29.5596 26.6013L26.5774 1.97444L36.1743 1.10254L38.1843 25.6966L29.5596 26.6013Z" fill="url(#paint11_linear_201_8)"/>
</g>
<g style="mix-blend-mode:multiply">
<path style="mix-blend-mode:multiply" d="M63.9758 24.7026L41.2023 25.0678L49.7414 9.86393L40.2827 10.6799L39.2612 1.46742L63.3881 0L56.1954 15.5592L63.8087 15.0821L63.9758 24.7026Z" fill="url(#paint12_linear_201_8)"/>
<path style="mix-blend-mode:multiply" d="M63.9758 24.7026L41.2023 25.0678L49.7414 9.86393L40.2827 10.6799L39.2612 1.46742L63.3881 0L56.1954 15.5592L63.8087 15.0821L63.9758 24.7026Z" fill="url(#paint13_linear_201_8)"/>
</g>
<g style="mix-blend-mode:multiply">
<path style="mix-blend-mode:multiply" d="M89.2388 26.3937L66.5764 24.2913L76.6824 10.1008L67.1877 9.89019V0.602051L91.3374 1.77006L82.4893 16.4508L90.1089 16.7995L89.2388 26.3937Z" fill="url(#paint14_linear_201_8)"/>
<path style="mix-blend-mode:multiply" d="M89.2388 26.3937L66.5764 24.2913L76.6824 10.1008L67.1877 9.89019V0.602051L91.3374 1.77006L82.4893 16.4508L90.1089 16.7995L89.2388 26.3937Z" fill="url(#paint15_linear_201_8)"/>
</g>
<g style="mix-blend-mode:multiply">
<path style="mix-blend-mode:multiply" d="M103.484 29.2826C101.607 28.9739 99.8115 28.2915 98.2027 27.2755C96.7051 26.3337 95.4154 25.0954 94.4124 23.6366C93.3953 22.1567 92.709 20.4745 92.3992 18.7048C92.0899 16.935 92.1649 15.1193 92.6193 13.3812C93.0762 11.538 93.9129 9.81092 95.0757 8.31101C96.2139 6.80237 97.6174 5.51457 99.2174 4.51089C102.491 2.3769 106.451 1.56565 110.299 2.24067C112.179 2.54635 113.979 3.22897 115.59 4.24767C117.093 5.18633 118.384 6.42913 119.38 7.89645C120.372 9.34278 121.044 10.9852 121.35 12.7133C121.683 14.5186 121.617 16.3749 121.157 18.1519C120.695 19.991 119.864 21.7164 118.713 23.2221C117.568 24.7228 116.165 26.0065 114.568 27.0124C111.292 29.1432 107.332 29.9541 103.484 29.2826ZM101.336 14.9374C101.149 15.6263 101.115 16.3475 101.236 17.051C101.356 17.7544 101.628 18.4231 102.032 19.0106C102.45 19.6117 102.986 20.1208 103.607 20.5067C104.228 20.8926 104.922 21.1471 105.645 21.2545C107.178 21.5227 108.756 21.1982 110.059 20.3465C110.708 19.9641 111.274 19.4562 111.725 18.8524C112.177 18.2485 112.503 17.5608 112.687 16.8292C112.875 16.1388 112.908 15.4148 112.782 14.7101C112.655 14.0054 112.374 13.3379 111.957 12.756C111.549 12.1463 111.015 11.6307 110.392 11.2438C109.769 10.8569 109.071 10.6074 108.344 10.5122C106.812 10.2476 105.236 10.5706 103.93 11.417C102.635 12.2007 101.702 13.4665 101.336 14.9374Z" fill="url(#paint16_linear_201_8)"/>
<path style="mix-blend-mode:multiply" d="M103.484 29.2826C101.607 28.9739 99.8115 28.2915 98.2027 27.2755C96.7051 26.3337 95.4154 25.0954 94.4124 23.6366C93.3953 22.1567 92.709 20.4745 92.3992 18.7048C92.0899 16.935 92.1649 15.1193 92.6193 13.3812C93.0762 11.538 93.9129 9.81092 95.0757 8.31101C96.2139 6.80237 97.6174 5.51457 99.2174 4.51089C102.491 2.3769 106.451 1.56565 110.299 2.24067C112.179 2.54635 113.979 3.22897 115.59 4.24767C117.093 5.18633 118.384 6.42913 119.38 7.89645C120.372 9.34278 121.044 10.9852 121.35 12.7133C121.683 14.5186 121.617 16.3749 121.157 18.1519C120.695 19.991 119.864 21.7164 118.713 23.2221C117.568 24.7228 116.165 26.0065 114.568 27.0124C111.292 29.1432 107.332 29.9541 103.484 29.2826ZM101.336 14.9374C101.149 15.6263 101.115 16.3475 101.236 17.051C101.356 17.7544 101.628 18.4231 102.032 19.0106C102.45 19.6117 102.986 20.1208 103.607 20.5067C104.228 20.8926 104.922 21.1471 105.645 21.2545C107.178 21.5227 108.756 21.1982 110.059 20.3465C110.708 19.9641 111.274 19.4562 111.725 18.8524C112.177 18.2485 112.503 17.5608 112.687 16.8292C112.875 16.1388 112.908 15.4148 112.782 14.7101C112.655 14.0054 112.374 13.3379 111.957 12.756C111.549 12.1463 111.015 11.6307 110.392 11.2438C109.769 10.8569 109.071 10.6074 108.344 10.5122C106.812 10.2476 105.236 10.5706 103.93 11.417C102.635 12.2007 101.702 13.4665 101.336 14.9374Z" fill="url(#paint17_linear_201_8)"/>
</g>
</g>
<path d="M101.762 37.8995L102.925 40.2586C102.933 40.2738 102.944 40.2871 102.957 40.2974C102.971 40.3076 102.987 40.3146 103.004 40.3178L105.602 40.6962C105.62 40.6991 105.639 40.7073 105.653 40.7198C105.668 40.7322 105.679 40.7486 105.685 40.7669C105.691 40.7853 105.692 40.805 105.688 40.8239C105.684 40.8427 105.674 40.86 105.661 40.8739L103.785 42.7097C103.773 42.7216 103.764 42.7362 103.759 42.7522C103.754 42.7682 103.753 42.7853 103.756 42.8019L104.199 45.3945C104.203 45.4138 104.201 45.4339 104.194 45.4522C104.187 45.4705 104.175 45.4864 104.159 45.4979C104.143 45.5094 104.124 45.516 104.104 45.5169C104.085 45.5179 104.065 45.513 104.048 45.5031L101.726 44.2792C101.711 44.2711 101.694 44.2669 101.677 44.2669C101.66 44.2669 101.642 44.2711 101.628 44.2792L99.3022 45.5031C99.285 45.513 99.2654 45.5179 99.2458 45.5169C99.2262 45.516 99.2076 45.5094 99.1914 45.4979C99.1752 45.4864 99.163 45.4705 99.1561 45.4522C99.1488 45.4339 99.1473 45.4138 99.1512 45.3945L99.5978 42.8019C99.5997 42.785 99.5978 42.7679 99.5924 42.7519C99.5865 42.7359 99.5772 42.7215 99.5649 42.7097L97.686 40.8739C97.6713 40.8608 97.661 40.8437 97.6556 40.8247C97.6502 40.8058 97.6507 40.7857 97.6566 40.7668C97.6625 40.7481 97.6737 40.7314 97.6889 40.7189C97.7041 40.7063 97.7228 40.6984 97.7419 40.6962L100.343 40.3178C100.36 40.3146 100.376 40.3076 100.389 40.2974C100.403 40.2871 100.414 40.2738 100.422 40.2586L101.585 37.8995C101.593 37.8838 101.607 37.8707 101.622 37.8616C101.637 37.8525 101.656 37.8477 101.673 37.8477C101.691 37.8477 101.709 37.8525 101.725 37.8616C101.74 37.8707 101.753 37.8838 101.762 37.8995Z" fill="white"/>
<path d="M15.8729 37.8987L17.0356 40.2577C17.0433 40.273 17.0544 40.2862 17.0681 40.2965C17.0817 40.3068 17.0976 40.3138 17.1144 40.3169L19.7057 40.6953C19.7246 40.6987 19.7421 40.7072 19.7564 40.7199C19.7708 40.7326 19.7814 40.749 19.7872 40.7672C19.7929 40.7855 19.7935 40.805 19.789 40.8237C19.7845 40.8423 19.7751 40.8594 19.7616 40.873L17.8796 42.7089C17.8683 42.7212 17.8598 42.7358 17.8547 42.7517C17.8496 42.7676 17.848 42.7844 17.8501 42.801L18.3033 45.4036C18.3068 45.4224 18.3048 45.4418 18.2978 45.4596C18.2907 45.4774 18.2788 45.4929 18.2634 45.5042C18.248 45.5156 18.2296 45.5223 18.2106 45.5237C18.1915 45.5251 18.1724 45.5211 18.1555 45.5121L15.8302 44.2882C15.815 44.2801 15.7981 44.2759 15.781 44.2759C15.7638 44.2759 15.7468 44.2801 15.7317 44.2882L13.4063 45.5121C13.3895 45.5211 13.3704 45.5251 13.3513 45.5237C13.3322 45.5223 13.3139 45.5156 13.2985 45.5042C13.283 45.4929 13.2711 45.4774 13.2641 45.4596C13.257 45.4418 13.2551 45.4224 13.2585 45.4036L13.7019 42.8109C13.7047 42.7943 13.7035 42.7773 13.6983 42.7612C13.6932 42.7452 13.6843 42.7306 13.6724 42.7187L11.7904 40.8828C11.777 40.869 11.7675 40.8517 11.7632 40.8328C11.7588 40.814 11.7598 40.7943 11.7659 40.7759C11.772 40.7575 11.783 40.7413 11.7978 40.7288C11.8126 40.7163 11.8305 40.7081 11.8496 40.7052L14.4508 40.3169C14.4676 40.3138 14.4834 40.3068 14.4971 40.2965C14.5107 40.2862 14.5219 40.273 14.5296 40.2577L15.6923 37.8987C15.7009 37.8821 15.7139 37.8682 15.7297 37.8586C15.7457 37.8488 15.7639 37.8438 15.7826 37.8438C15.8012 37.8438 15.8195 37.8488 15.8354 37.8586C15.8514 37.8682 15.8643 37.8821 15.8729 37.8987Z" fill="white"/>
<defs>
<linearGradient id="paint0_linear_201_8" x1="-4.22367" y1="9.09069" x2="31.2981" y2="29.442" gradientUnits="userSpaceOnUse">
<stop stop-color="white"/>
<stop offset="1"/>
</linearGradient>
<linearGradient id="paint1_linear_201_8" x1="970.84" y1="1194.47" x2="1385.1" y2="1194.47" gradientUnits="userSpaceOnUse">
<stop stop-color="white"/>
<stop offset="1"/>
</linearGradient>
<linearGradient id="paint2_linear_201_8" x1="24.7416" y1="6.84269" x2="43.6766" y2="12.0333" gradientUnits="userSpaceOnUse">
<stop stop-color="white"/>
<stop offset="1"/>
</linearGradient>
<linearGradient id="paint3_linear_201_8" x1="2949.67" y1="1108.72" x2="4668.86" y2="1108.72" gradientUnits="userSpaceOnUse">
<stop stop-color="white"/>
<stop offset="1"/>
</linearGradient>
<linearGradient id="paint4_linear_201_8" x1="36.5031" y1="4.11305" x2="69.1456" y2="21.0739" gradientUnits="userSpaceOnUse">
<stop stop-color="white"/>
<stop offset="1"/>
</linearGradient>
<linearGradient id="paint5_linear_201_8" x1="5084.59" y1="1216.22" x2="6951.27" y2="1216.22" gradientUnits="userSpaceOnUse">
<stop stop-color="white"/>
<stop offset="1"/>
</linearGradient>
<linearGradient id="paint6_linear_201_8" x1="62.7097" y1="5.82805" x2="95.8457" y2="24.0867" gradientUnits="userSpaceOnUse">
<stop stop-color="white"/>
<stop offset="1"/>
</linearGradient>
<linearGradient id="paint7_linear_201_8" x1="8334.17" y1="1482.22" x2="10959.5" y2="1482.22" gradientUnits="userSpaceOnUse">
<stop stop-color="white"/>
<stop offset="1"/>
</linearGradient>
<linearGradient id="paint8_linear_201_8" x1="87.6249" y1="8.15837" x2="124.252" y2="31.2772" gradientUnits="userSpaceOnUse">
<stop stop-color="white"/>
<stop offset="1"/>
</linearGradient>
<linearGradient id="paint9_linear_201_8" x1="12.9239" y1="5.22511" x2="14.4829" y2="24.8341" gradientUnits="userSpaceOnUse">
<stop stop-color="white"/>
<stop offset="1" stop-color="#FFCE07"/>
</linearGradient>
<linearGradient id="paint10_linear_201_8" x1="1142.69" y1="291.024" x2="1401.46" y2="1775.21" gradientUnits="userSpaceOnUse">
<stop stop-color="white"/>
<stop offset="1" stop-color="#FFCE07"/>
</linearGradient>
<linearGradient id="paint11_linear_201_8" x1="32.124" y1="3.22184" x2="35.096" y2="20.7646" gradientUnits="userSpaceOnUse">
<stop stop-color="white"/>
<stop offset="1" stop-color="#FFCE07"/>
</linearGradient>
<linearGradient id="paint12_linear_201_8" x1="3910.08" y1="164.695" x2="4030.32" y2="1658.47" gradientUnits="userSpaceOnUse">
<stop stop-color="white"/>
<stop offset="1" stop-color="#FFCE07"/>
</linearGradient>
<linearGradient id="paint13_linear_201_8" x1="51.0718" y1="2.08348" x2="52.4508" y2="19.7168" gradientUnits="userSpaceOnUse">
<stop stop-color="white"/>
<stop offset="1" stop-color="#FFCE07"/>
</linearGradient>
<linearGradient id="paint14_linear_201_8" x1="5940.28" y1="4.9866" x2="6067.29" y2="1541.35" gradientUnits="userSpaceOnUse">
<stop stop-color="white"/>
<stop offset="1" stop-color="#FFCE07"/>
</linearGradient>
<linearGradient id="paint15_linear_201_8" x1="78.4088" y1="2.74569" x2="79.8657" y2="20.8822" gradientUnits="userSpaceOnUse">
<stop stop-color="white"/>
<stop offset="1" stop-color="#FFCE07"/>
</linearGradient>
<linearGradient id="paint16_linear_201_8" x1="9515.94" y1="-176.491" x2="9638" y2="1463.98" gradientUnits="userSpaceOnUse">
<stop stop-color="white"/>
<stop offset="1" stop-color="#FFCE07"/>
</linearGradient>
<linearGradient id="paint17_linear_201_8" x1="106.236" y1="4.29474" x2="107.636" y2="23.6589" gradientUnits="userSpaceOnUse">
<stop stop-color="white"/>
<stop offset="1" stop-color="#FFCE07"/>
</linearGradient>
</defs>
</svg>
